<?xml version="1.0" encoding="UTF-8"?>
<svg version="1.1" xmlns="http://www.w3.org/2000/svg" width="606" height="412">
<path d="M0 0 C3.11352539 -0.38818359 3.11352539 -0.38818359 7.09765625 -0.3984375 C8.16009804 -0.40274277 8.16009804 -0.40274277 9.2440033 -0.40713501 C10.74788204 -0.40917909 12.25178715 -0.40362513 13.75561523 -0.39111328 C16.02976151 -0.37522867 18.30208519 -0.39086127 20.57617188 -0.41015625 C30.89095709 -0.42528776 39.69567382 0.39912534 48 7 C48 7.66 48 8.32 48 9 C48.99 9.33 49.98 9.66 51 10 C52.5703125 12.6171875 52.5703125 12.6171875 54.125 15.875 C54.64320313 16.94492188 55.16140625 18.01484375 55.6953125 19.1171875 C59.26291534 27.00009436 59.26071752 37.41790734 57.3515625 45.87109375 C54.29805495 53.19168235 48.63472433 60.6400383 42 65 C41.34 65 40.68 65 40 65 C44.81078289 75.48146418 49.79020603 85.77218215 55.54833984 95.77099609 C57.58892955 99.33888806 59.52672845 102.93599741 61.29296875 106.6484375 C61.62192139 107.33856934 61.95087402 108.02870117 62.28979492 108.73974609 C63 111 63 111 63 117 C55.41 117 47.82 117 40 117 C37.26439682 112.21269443 35.09425109 108.00263559 33 103 C31.54861604 99.86175888 30.05473279 96.74399074 28.5625 93.625 C27.79186269 92.01354931 27.02232677 90.40157144 26.25390625 88.7890625 C25.91689697 88.08475098 25.5798877 87.38043945 25.23266602 86.65478516 C23.43902588 82.79183351 21.72175662 78.89542028 20 75 C19.97494385 76.20124512 19.9498877 77.40249023 19.92407227 78.64013672 C19.83006856 83.08686429 19.72983083 87.53343307 19.62768555 91.97998047 C19.58430999 93.90637504 19.54263686 95.83280871 19.50268555 97.75927734 C19.44504638 100.52453408 19.38133384 103.2895935 19.31640625 106.0546875 C19.29133751 107.3516304 19.29133751 107.3516304 19.26576233 108.67477417 C19.11387171 114.77225659 19.11387171 114.77225659 18 117 C14.85418577 117.02888514 11.70840531 117.04675923 8.5625 117.0625 C7.66466797 117.07087891 6.76683594 117.07925781 5.84179688 117.08789062 C4.56079102 117.09272461 4.56079102 117.09272461 3.25390625 117.09765625 C2.46314697 117.10289307 1.6723877 117.10812988 0.85766602 117.11352539 C-1 117 -1 117 -2 116 C-2.09996758 114.53941039 -2.1307514 113.07401954 -2.13371277 111.61001587 C-2.13797775 110.66217728 -2.14224274 109.71433868 -2.14663696 108.73777771 C-2.14618378 107.68945267 -2.14573059 106.64112762 -2.14526367 105.56103516 C-2.14862228 104.46355453 -2.1519809 103.36607391 -2.15544128 102.2353363 C-2.16498483 98.58656704 -2.16689614 94.93784349 -2.16796875 91.2890625 C-2.17117913 88.76419048 -2.17454303 86.23931864 -2.17805481 83.71444702 C-2.18405472 78.41314182 -2.18593651 73.11185381 -2.18530273 67.81054688 C-2.1847021 61.67972309 -2.19524925 55.54898734 -2.2110464 49.41818583 C-2.22568845 43.52620802 -2.22929104 37.63425716 -2.22869301 31.74225998 C-2.22987638 29.23275773 -2.23431801 26.72325489 -2.24202538 24.21376419 C-2.25178245 20.70835241 -2.24896405 17.20316908 -2.24291992 13.69775391 C-2.24853943 12.65347733 -2.25415894 11.60920074 -2.25994873 10.53327942 C-2.25575424 9.57980118 -2.25155975 8.62632294 -2.24723816 7.64395142 C-2.24778293 6.81471476 -2.24832769 5.9854781 -2.24888897 5.13111305 C-2 3 -2 3 0 0 Z M21 21 C19.40176957 25.23251959 18.75187996 28.72128256 18.76953125 33.23828125 C18.77146484 34.38748047 18.77339844 35.53667969 18.77539062 36.72070312 C18.78763672 37.90599609 18.79988281 39.09128906 18.8125 40.3125 C18.81314453 41.51712891 18.81378906 42.72175781 18.81445312 43.96289062 C18.31981599 49.3461661 18.31981599 49.3461661 20 54 C24.73440537 53.63581497 28.31993992 53.08329358 32 50 C36.29544376 44.53945221 36.46667269 38.79103783 36.53125 32.05078125 C35.72217127 27.40452767 33.29222933 24.98617501 29.625 22.1875 C26.55867533 20.80035313 24.32920966 20.76772956 21 21 Z " fill="#D7C47B" transform="translate(319,219)"/>
<path d="M0 0 C1.39895508 -0.0309375 1.39895508 -0.0309375 2.82617188 -0.0625 C3.71755859 -0.06765625 4.60894531 -0.0728125 5.52734375 -0.078125 C6.75892212 -0.09214355 6.75892212 -0.09214355 8.01538086 -0.10644531 C8.69093018 0.01118164 9.36647949 0.12880859 10.0625 0.25 C12.46073164 3.84734746 12.98507439 7.2062602 13.75 11.375 C14.09695046 13.1826782 14.446073 14.98994029 14.796875 16.796875 C14.99345703 17.81072266 15.19003906 18.82457031 15.39257812 19.86914062 C16.69999803 26.46722766 18.10200403 33.04562953 19.5 39.625 C19.65113251 40.33735809 19.80226501 41.04971619 19.95797729 41.78366089 C22.21775784 52.42395683 24.56822952 63.04094429 27.01171875 73.640625 C27.93290488 77.64692337 28.78872696 81.66265647 29.625 85.6875 C30.36080294 89.21005087 31.16334736 92.68790659 32.1328125 96.15234375 C32.3177124 96.81500244 32.5026123 97.47766113 32.69311523 98.16040039 C33.2154994 100.00328745 33.75368379 101.84167508 34.29296875 103.6796875 C35.0625 107.25 35.0625 107.25 35.0625 115.25 C28.4625 115.25 21.8625 115.25 15.0625 115.25 C12.0625 108.25 12.0625 108.25 10.0625 101.25 C-0.8275 100.755 -0.8275 100.755 -11.9375 100.25 C-12.06125 102.168125 -12.185 104.08625 -12.3125 106.0625 C-12.6875 111.875 -12.6875 111.875 -14.9375 115.25 C-17.00048828 115.68237305 -17.00048828 115.68237305 -19.5078125 115.76171875 C-20.40371094 115.79716797 -21.29960937 115.83261719 -22.22265625 115.86914062 C-23.15980469 115.89169922 -24.09695312 115.91425781 -25.0625 115.9375 C-26.00738281 115.97166016 -26.95226562 116.00582031 -27.92578125 116.04101562 C-30.26290253 116.12364112 -32.59964191 116.19273988 -34.9375 116.25 C-35.89647169 113.19755887 -35.93071659 111.20181729 -35.1875 108.1015625 C-34.99478516 107.27664307 -34.80207031 106.45172363 -34.60351562 105.60180664 C-34.38373047 104.70196045 -34.16394531 103.80211426 -33.9375 102.875 C-33.71255859 101.92036865 -33.48761719 100.9657373 -33.25585938 99.98217773 C-32.75893058 97.87542063 -32.25807614 95.76958675 -31.75390625 93.66455078 C-30.29253915 87.55250523 -28.86700872 81.43206039 -27.4375 75.3125 C-27.14012939 74.0426123 -26.84275879 72.77272461 -26.53637695 71.46435547 C-23.51025976 58.50332904 -20.55534847 45.51870918 -17.9921875 32.45703125 C-16.74378116 26.17246125 -15.31106373 19.93140727 -13.875 13.6875 C-13.60623047 12.50091797 -13.33746094 11.31433594 -13.06054688 10.09179688 C-12.80208984 8.96708984 -12.54363281 7.84238281 -12.27734375 6.68359375 C-12.04394287 5.66322021 -11.81054199 4.64284668 -11.57006836 3.59155273 C-10.14371321 -1.68832849 -4.65457283 0.02562738 0 0 Z M0.0625 53.25 C-2.0825195 56.97962849 -3.03693563 60.98475866 -4.0625 65.125 C-4.24425781 65.81980469 -4.42601562 66.51460937 -4.61328125 67.23046875 C-5.63972289 71.32851771 -6.13779738 74.99034248 -5.9375 79.25 C-2.3075 79.25 1.3225 79.25 5.0625 79.25 C4.70640639 70.1511942 3.93954025 61.95349911 1.0625 53.25 C0.7325 53.25 0.4025 53.25 0.0625 53.25 Z " fill="#D7C47B" transform="translate(256.9375,218.75)"/>
<path d="M0 0 C13.76880409 -0.09340409 27.53755911 -0.16369393 41.30661488 -0.20724869 C47.69972003 -0.22814969 54.0926128 -0.25651363 60.4855957 -0.30175781 C66.65177697 -0.34512525 72.81775358 -0.36911816 78.98407555 -0.37950897 C81.34009716 -0.38691667 83.6961072 -0.40138159 86.05204201 -0.42292023 C89.34459526 -0.45183253 92.63629593 -0.45596102 95.92895508 -0.45410156 C96.90934753 -0.46848267 97.88973999 -0.48286377 98.89984131 -0.49768066 C99.79586563 -0.49218201 100.69188995 -0.48668335 101.61506653 -0.48101807 C102.78343914 -0.48654882 102.78343914 -0.48654882 103.97541523 -0.49219131 C106.79657161 0.19365236 107.51170504 1.5829389 109 4 C109.67823217 5.32732476 110.31246993 6.6779927 110.90234375 8.046875 C111.23556641 8.81 111.56878906 9.573125 111.91210938 10.359375 C112.25048828 11.14828125 112.58886719 11.9371875 112.9375 12.75 C113.61138411 14.30811355 114.28715566 15.86541219 114.96484375 17.421875 C115.29605225 18.18516113 115.62726074 18.94844727 115.96850586 19.73486328 C116.9853309 21.967787 118.10183676 24.12135057 119.25 26.2890625 C121.53643924 30.80914676 121.53334446 34.17709677 120 39 C117.30769829 44.01067262 114.53346832 45.15551056 109 47 C109 66.14 109 85.28 109 105 C72.7 105 36.4 105 -1 105 C-2.12929124 88.06063134 -2.12929124 88.06063134 -1.81640625 79.5234375 C-1.77462961 77.68103521 -1.7349733 75.83858381 -1.69726562 73.99609375 C-1.63517877 71.16186614 -1.5607777 68.33038686 -1.45141602 65.49755859 C-1.34856062 62.71404919 -1.29676906 59.93343212 -1.25390625 57.1484375 C-1.20947891 56.30260101 -1.16505157 55.45676453 -1.11927795 54.58529663 C-1.10746273 52.1430376 -1.17866613 50.30348395 -2 48 C-3.9189378 46.26648526 -5.77414398 45.15178655 -8.08702087 44.00405884 C-10.88566234 42.53514542 -11.8290119 40.89302941 -13 38 C-14.25139908 33.66181654 -14.22266634 30.99244835 -12.33203125 26.98828125 C-11.96601807 26.1998584 -11.60000488 25.41143555 -11.22290039 24.59912109 C-10.6175647 23.31255615 -10.6175647 23.31255615 -10 22 C-9.13850921 20.10382443 -8.27921166 18.20665118 -7.421875 16.30859375 C-6.53163968 14.35138521 -5.64101045 12.39435579 -4.75 10.4375 C-4.06164062 8.92446289 -4.06164062 8.92446289 -3.359375 7.38085938 C-2.23993089 4.9204145 -1.1201327 2.46013145 0 0 Z M3 4 C-3.60015739 16.63431127 -3.60015739 16.63431127 -8 30 C32.59 30 73.18 30 115 30 C114.26402419 26.32012094 113.84044224 24.31048032 112.22265625 21.1875 C111.69961914 20.16269531 111.69961914 20.16269531 111.16601562 19.1171875 C110.80185547 18.41851562 110.43769531 17.71984375 110.0625 17 C109.34318789 15.60512642 108.62569378 14.2093136 107.91015625 12.8125 C107.59183838 12.20019531 107.27352051 11.58789062 106.94555664 10.95703125 C105.84999173 8.68952588 104.93527374 6.33818436 104 4 C70.67 4 37.34 4 3 4 Z M-10 34 C-6.81989159 40.7763932 -6.81989159 40.7763932 -3 43 C1.49821576 43.72443175 5.00847665 43.55773188 9 41.3125 C11.45598821 38.8568851 11.45598821 38.8568851 12 34 C4.74 34 -2.52 34 -10 34 Z M16 34 C18.17929536 40.51649306 18.17929536 40.51649306 20.6875 42.4375 C25.98017754 43.72490805 29.60763413 43.68352506 34.4375 41.3125 C37.5180913 38.99474733 37.5180913 38.99474733 38 34 C30.74 34 23.48 34 16 34 Z M43 34 C44.35152097 39.76954878 44.35152097 39.76954878 47.1875 41.875 C50.77470694 43.30988278 53.16032424 43.47153913 57 43 C60.42460322 41.46746843 60.42460322 41.46746843 63 39 C63.33 37.35 63.66 35.7 64 34 C57.07 34 50.14 34 43 34 Z M69 34 C70.9876325 38.96908126 71.5647991 40.39672991 76 43 C79.88290629 43.5547009 82.35780758 43.89541958 85.8125 42.01171875 C89.07009505 39.48238414 89.98492072 38.06031711 91 34 C83.74 34 76.48 34 69 34 Z M96 34 C97.01170179 39.60143284 97.01170179 39.60143284 101 43 C106.35537896 43.59504211 109.64945598 43.45484378 114 40 C116.2773501 37.18490007 116.2773501 37.18490007 116 34 C109.4 34 102.8 34 96 34 Z M87 45 C82.95835165 46.34721612 79.22925438 46.44596707 75 46 C72.0625 44.5 72.0625 44.5 70 43 C69.34 43 68.68 43 68 43 C68 62.14 68 81.28 68 101 C80.21 101 92.42 101 105 101 C105 83.18 105 65.36 105 47 C102.36 46.01 99.72 45.02 97 44 C96.01 43.01 95.02 42.02 94 41 C90.89496266 41 89.36116528 43.09954989 87 45 Z M40 40 C40 40.66 40 41.32 40 42 C39.34 42 38.68 42 38 42 C37.54625 42.474375 37.0925 42.94875 36.625 43.4375 C33.39112994 46.54699044 29.37386547 46.27512699 25.02734375 46.2265625 C20.74344532 45.74782241 17.50229446 43.33486297 14 41 C13.29875 41.61875 12.5975 42.2375 11.875 42.875 C8.92801433 45.0532068 6.47096943 45.93274901 3 47 C2.80609271 49.31197155 2.62003633 51.6246029 2.4375 53.9375 C2.33308594 55.22527344 2.22867188 56.51304687 2.12109375 57.83984375 C2.08113281 58.88269531 2.04117188 59.92554688 2 61 C2.98267859 62.20561184 2.98267859 62.20561184 4.84765625 62.09765625 C6.8984375 62.06510417 8.94921875 62.03255208 11 62 C11 59.36 11 56.72 11 54 C14.96 54 18.92 54 23 54 C23 56.64 23 59.28 23 62 C24.32 62 25.64 62 27 62 C27 58.37 27 54.74 27 51 C31.29 51 35.58 51 40 51 C40 54.63 40 58.26 40 62 C41.32 61.67 42.64 61.34 44 61 C44.33 59.68 44.66 58.36 45 57 C48.63 56.67 52.26 56.34 56 56 C56 57.98 56 59.96 56 62 C58.64 62 61.28 62 64 62 C64 56.06 64 50.12 64 44 C62.02 44.66 60.04 45.32 58 46 C51.72673016 46.77139665 47.20197352 45.66371333 42.1875 41.875 C41.465625 41.25625 40.74375 40.6375 40 40 Z M31 54 C31 56.64 31 59.28 31 62 C32.65 62 34.3 62 36 62 C36 59.36 36 56.72 36 54 C34.35 54 32.7 54 31 54 Z M15 58 C15 59.32 15 60.64 15 62 C16.32 62 17.64 62 19 62 C19 60.68 19 59.36 19 58 C17.68 58 16.36 58 15 58 Z M49 60 C49 60.66 49 61.32 49 62 C50.32 62 51.64 62 53 62 C53 61.34 53 60.68 53 60 C51.68 60 50.36 60 49 60 Z M2 67 C1.92686433 69.53049402 1.90752473 72.03304837 1.9375 74.5625 C1.94201172 75.27341797 1.94652344 75.98433594 1.95117188 76.71679688 C1.96299136 78.47790013 1.98092737 80.23896036 2 82 C4.97 82 7.94 82 11 82 C11.33 78.37 11.66 74.74 12 71 C15.63 71 19.26 71 23 71 C23 74.63 23 78.26 23 82 C24.32 82 25.64 82 27 82 C27 80.35 27 78.7 27 77 C31.29 77 35.58 77 40 77 C40 78.65 40 80.3 40 82 C41.32 82 42.64 82 44 82 C44.33 79.03 44.66 76.06 45 73 C48.63 72.67 52.26 72.34 56 72 C56 75.3 56 78.6 56 82 C58.64 82 61.28 82 64 82 C64 76.72 64 71.44 64 66 C56.0638579 65.97744527 48.12774054 65.95908277 40.19157505 65.94818783 C36.50685502 65.94295992 32.82215797 65.93586395 29.13745117 65.92456055 C25.58429169 65.91372838 22.03115437 65.90772247 18.47797966 65.90512276 C17.11954334 65.9032691 15.76110829 65.89964962 14.40268135 65.89426994 C12.50617777 65.88705525 10.60965207 65.88659191 8.71313477 65.88647461 C7.63169693 65.884254 6.55025909 65.88203339 5.43605042 65.87974548 C3.05202528 65.7241803 3.05202528 65.7241803 2 67 Z M15 74 C15 76.64 15 79.28 15 82 C16.32 82 17.64 82 19 82 C19 79.36 19 76.72 19 74 C17.68 74 16.36 74 15 74 Z M49 76 C49 77.98 49 79.96 49 82 C50.32 82 51.64 82 53 82 C53 80.02 53 78.04 53 76 C51.68 76 50.36 76 49 76 Z M31 80 C31 80.66 31 81.32 31 82 C32.65 82 34.3 82 36 82 C36 81.34 36 80.68 36 80 C34.35 80 32.7 80 31 80 Z M3 86 C2.28831537 89.55842314 1.86317858 92.22721632 1.875 95.75 C1.87242187 96.52859375 1.86984375 97.3071875 1.8671875 98.109375 C1.79315551 100.01176146 1.79315551 100.01176146 3 101 C4.90243762 101.09391296 6.80838459 101.11743658 8.71313477 101.11352539 C10.54492027 101.11341209 10.54492027 101.11341209 12.41371155 101.11329651 C13.75627686 101.10818911 15.09884175 101.10297311 16.44140625 101.09765625 C17.80761158 101.09579199 19.17381757 101.09436813 20.5400238 101.09336853 C24.14201695 101.08954394 27.74397 101.07971417 31.34594727 101.06866455 C35.01903745 101.05844916 38.69213409 101.05387064 42.36523438 101.04882812 C49.57684334 101.03809184 56.78841095 101.02049553 64 101 C64 96.05 64 91.1 64 86 C43.87 86 23.74 86 3 86 Z " fill="#64542E" transform="translate(247,82)"/>
<path d="M0 0 C1 1 1 1 1.11352539 2.85766602 C1.10828857 3.64842529 1.10305176 4.43918457 1.09765625 5.25390625 C1.09443359 6.10791016 1.09121094 6.96191406 1.08789062 7.84179688 C1.07532227 9.18854492 1.07532227 9.18854492 1.0625 10.5625 C1.05798828 11.46419922 1.05347656 12.36589844 1.04882812 13.29492188 C1.03700225 15.53001314 1.0205222 17.76497437 1 20 C0.40574219 20.0093457 -0.18851563 20.01869141 -0.80078125 20.02832031 C-3.53464645 20.08252993 -6.26689199 20.16607278 -9 20.25 C-9.93457031 20.26417969 -10.86914062 20.27835938 -11.83203125 20.29296875 C-18.29131393 20.51881779 -22.38774426 21.81121833 -28 25 C-28.66 25 -29.32 25 -30 25 C-30.27972656 25.57621094 -30.55945313 26.15242188 -30.84765625 26.74609375 C-31.95756618 28.91700233 -33.18350727 30.97251212 -34.4375 33.0625 C-40.93533722 44.90471221 -42.05844795 58.40297761 -38.51025391 71.36938477 C-35.99972901 79.54258094 -32.99360332 87.87674499 -25.375 92.5 C-21.29283067 94.31429748 -18.12263417 95.12944739 -13.671875 95.09765625 C-12.87265625 95.09443359 -12.0734375 95.09121094 -11.25 95.08789062 C-10.425 95.07951172 -9.6 95.07113281 -8.75 95.0625 C-7.90953125 95.05798828 -7.0690625 95.05347656 -6.203125 95.04882812 C-4.13538599 95.03707961 -2.06768376 95.01914522 0 95 C2.49055871 98.76435592 2.03090984 101.86617377 1.625 106.25 C1.51414063 107.51328125 1.40328125 108.7765625 1.2890625 110.078125 C1.19367188 111.04234375 1.09828125 112.0065625 1 113 C-10.41320741 118.07253663 -21.50204805 116.14487705 -33 112 C-39.00047274 109.15801785 -44.58171751 106.03766788 -49 101 C-49 100.34 -49 99.68 -49 99 C-49.61746094 98.75121094 -50.23492187 98.50242187 -50.87109375 98.24609375 C-56.46353827 94.97271797 -57.78807134 85.73875493 -59.38671875 79.87109375 C-63.37051841 61.22082145 -63.06930854 38.25512909 -53.51953125 21.26171875 C-44.70982882 8.14907683 -32.94756222 0.93054969 -17.7265625 -2.40625 C-10.7193726 -3.52269954 -6.22685226 -3.11342613 0 0 Z " fill="#9C7237" transform="translate(195,220)"/>
<path d="M0 0 C1.07113541 -0.01268417 2.14227081 -0.02536835 3.24586487 -0.03843689 C4.39699265 -0.03550125 5.54812042 -0.03256561 6.73413086 -0.02954102 C7.91994247 -0.03478287 9.10575409 -0.04002472 10.32749939 -0.04542542 C12.83323381 -0.05184702 15.33899838 -0.05050688 17.84472656 -0.04199219 C21.68796094 -0.03347168 25.52971483 -0.06226155 29.37280273 -0.09399414 C31.805745 -0.09560588 34.2386899 -0.09502914 36.67163086 -0.09204102 C37.82478287 -0.10327499 38.97793488 -0.11450897 40.16603088 -0.12608337 C41.23401413 -0.11670242 42.30199738 -0.10732147 43.40234375 -0.09765625 C44.81321007 -0.097407 44.81321007 -0.097407 46.25257874 -0.09715271 C48.63647461 0.40405273 48.63647461 0.40405273 50.43870544 2.24424744 C52.07655105 5.19759414 52.0347814 7.48149112 52.01147461 10.84155273 C52.02307617 12.51024414 52.02307617 12.51024414 52.03491211 14.21264648 C51.57217281 17.91909751 51.09442285 19.57827459 48.63647461 22.40405273 C45.72524854 23.03722086 42.91060545 22.87447399 39.94897461 22.71655273 C39.15168945 22.69399414 38.3544043 22.67143555 37.53295898 22.64819336 C35.56666127 22.58932217 33.6013297 22.49964028 31.63647461 22.40405273 C31.63869522 23.13701065 31.64091583 23.86996857 31.64320374 24.62513733 C31.66363687 31.69394362 31.67866016 38.76273889 31.68828678 45.83156681 C31.69340292 49.46161772 31.70028168 53.09164334 31.71191406 56.72167969 C31.76095705 72.47612071 31.67792381 88.21451541 31.19506836 103.96264648 C31.16577083 104.98229335 31.16577083 104.98229335 31.13588142 106.02253914 C31.07982746 107.92128947 31.01548211 109.81978969 30.95068359 111.71826172 C30.91442368 112.7957518 30.87816376 113.87324188 30.84080505 114.98338318 C30.63647461 117.40405273 30.63647461 117.40405273 29.63647461 118.40405273 C26.83766066 118.69571861 24.06789621 118.91959063 21.26147461 119.09155273 C20.48030273 119.15149414 19.69913086 119.21143555 18.89428711 119.27319336 C12.99339425 119.64199916 12.99339425 119.64199916 9.63647461 117.40405273 C9.35044 114.35386375 9.25854688 111.50766972 9.29589844 108.45629883 C9.29524132 107.06597694 9.29524132 107.06597694 9.29457092 105.64756775 C9.29666636 102.57399668 9.32003299 99.50096639 9.34350586 96.42749023 C9.34909913 94.30042824 9.35337049 92.1733624 9.35636902 90.04629517 C9.36783896 84.44019961 9.39732466 78.83433618 9.43048096 73.22833252 C9.46113555 67.51089621 9.47486448 61.79342249 9.48999023 56.07592773 C9.52219227 44.85186725 9.57341456 33.62797927 9.63647461 22.40405273 C7.83049805 22.33057617 7.83049805 22.33057617 5.98803711 22.25561523 C4.41249263 22.18058931 2.83697295 22.1050414 1.26147461 22.02905273 C0.46741211 21.99811523 -0.32665039 21.96717773 -1.14477539 21.93530273 C-7.13696289 21.63061523 -7.13696289 21.63061523 -9.36352539 19.40405273 C-9.61569657 16.70933983 -9.73378423 14.16190149 -9.73852539 11.46655273 C-9.76301758 10.73758789 -9.78750977 10.00862305 -9.81274414 9.25756836 C-9.82446289 7.12670898 -9.82446289 7.12670898 -9.36352539 3.40405273 C-6.40375041 0.42011763 -4.11720603 0.02363059 0 0 Z " fill="#9C7339" transform="translate(416.363525390625,217.595947265625)"/>
<path d="M0 0 C27.39 0 54.78 0 83 0 C82.67 0.66 82.34 1.32 82 2 C79.28553021 2.31241455 76.66090639 2.51336592 73.9375 2.625 C73.17888672 2.66367188 72.42027344 2.70234375 71.63867188 2.7421875 C69.75952805 2.83673562 67.87979664 2.91946756 66 3 C67.28100673 6.41416141 68.36981188 8.48936588 71 11 C71 11.66 71 12.32 71 13 C73.64 13 76.28 13 79 13 C79 13.66 79 14.32 79 15 C73.36191513 15.22552339 69.05326974 14.52663487 64 12 C64 31.47 64 50.94 64 71 C65.65 71 67.3 71 69 71 C69 71.66 69 72.32 69 73 C64.4326251 73.14542577 59.86516483 73.28766997 55.29760742 73.42724609 C53.75103223 73.47492163 52.20448137 73.52339505 50.65795898 73.57275391 C36.10428988 74.03627668 21.61564977 74.1811721 7.0625 73.5 C5.98548828 73.45230469 4.90847656 73.40460938 3.79882812 73.35546875 C1.19907098 73.23992399 -1.4005124 73.12143215 -4 73 C-3.67 72.01 -3.34 71.02 -3 70 C17.79 70 38.58 70 60 70 C60 58.45 60 46.9 60 35 C57.19371094 35.01160156 54.38742187 35.02320313 51.49609375 35.03515625 C48.76228956 35.04296679 46.02848664 35.04903218 43.29467773 35.05493164 C41.40241942 35.05994403 39.51016495 35.06675567 37.61791992 35.07543945 C34.88980152 35.08764098 32.16173457 35.09325938 29.43359375 35.09765625 C28.59477158 35.10281754 27.7559494 35.10797882 26.89170837 35.11329651 C22.1519999 35.11374383 17.67452688 34.79326968 13 34 C14.98 29.545 14.98 29.545 17 25 C16.236875 25.185625 15.47375 25.37125 14.6875 25.5625 C12 26 12 26 9 25 C9.33 26.98 9.66 28.96 10 31 C9.34 31 8.68 31 8 31 C8 28.69 8 26.38 8 24 C11.3 24 14.6 24 18 24 C18 26.31 18 28.62 18 31 C19.65 31 21.3 31 23 31 C23 27.37 23 23.74 23 20 C27.29 20 31.58 20 36 20 C36 23.63 36 27.26 36 31 C37.32 30.67 38.64 30.34 40 30 C40.33 28.35 40.66 26.7 41 25 C44.63 25 48.26 25 52 25 C52 26.98 52 28.96 52 31 C54.64 31 57.28 31 60 31 C59.67 25.39 59.34 19.78 59 14 C57.35 14.66 55.7 15.32 54 16 C49.37333999 16.59585773 45.12831209 16.29350671 41 14 C38.6875 11.875 38.6875 11.875 37 10 C36.01 10.33 35.02 10.66 34 11 C33.67 11.99 33.34 12.98 33 14 C27.52167516 16.5387359 21.74076208 16.91358736 16 15 C14.8125 12.9375 14.8125 12.9375 14 11 C15.30324219 11.06960937 15.30324219 11.06960937 16.6328125 11.140625 C23.94874608 11.63000477 23.94874608 11.63000477 30.6875 9.3125 C33.43221701 6.87142912 33.43221701 6.87142912 35 2 C23.45 2 11.9 2 0 2 C0 1.34 0 0.68 0 0 Z M39 3 C40.35152097 8.76954878 40.35152097 8.76954878 43.1875 10.875 C46.77470694 12.30988278 49.16032424 12.47153913 53 12 C56.42460322 10.46746843 56.42460322 10.46746843 59 8 C59.33 6.35 59.66 4.7 60 3 C53.07 3 46.14 3 39 3 Z M27 23 C27 25.64 27 28.28 27 31 C28.65 31 30.3 31 32 31 C32 28.36 32 25.72 32 23 C30.35 23 28.7 23 27 23 Z M45 29 C45 29.66 45 30.32 45 31 C46.32 31 47.64 31 49 31 C49 30.34 49 29.68 49 29 C47.68 29 46.36 29 45 29 Z " fill="#C3B88B" transform="translate(251,113)"/>
<path d="M0 0 C0.495 1.98 0.495 1.98 1 4 C-5.6 4 -12.2 4 -19 4 C-18.34 6.31 -17.68 8.62 -17 11 C-16.07316406 11.12117188 -15.14632812 11.24234375 -14.19140625 11.3671875 C-12.39509766 11.61855469 -12.39509766 11.61855469 -10.5625 11.875 C-9.36753906 12.03742188 -8.17257812 12.19984375 -6.94140625 12.3671875 C-5.97074219 12.57601562 -5.00007813 12.78484375 -4 13 C-3.505 13.99 -3.505 13.99 -3 15 C-3.66 15 -4.32 15 -5 15 C-5.33 34.8 -5.66 54.6 -6 75 C-29.1 75 -52.2 75 -76 75 C-76 74.67 -76 74.34 -76 74 C-64.78 74 -53.56 74 -42 74 C-42 73.34 -42 72.68 -42 72 C-43.65 72 -45.3 72 -47 72 C-47 71.67 -47 71.34 -47 71 C-34.79 71 -22.58 71 -10 71 C-10 53.18 -10 35.36 -10 17 C-12.31 16.67 -14.62 16.34 -17 16 C-18.4375 13.9375 -18.4375 13.9375 -19 12 C-22.8713588 12.53768872 -24.97184125 13.577473 -28 16 C-30.78601223 16.92867074 -32.61066089 17.16342217 -35.5 17.1875 C-36.66015625 17.20876953 -36.66015625 17.20876953 -37.84375 17.23046875 C-40 17 -40 17 -43 15 C-37.555 15.495 -37.555 15.495 -32 16 C-32 15.34 -32 14.68 -32 14 C-34.64 14 -37.28 14 -40 14 C-39.67 13.34 -39.34 12.68 -39 12 C-37.783125 12.0825 -36.56625 12.165 -35.3125 12.25 C-31.96883723 12.25592848 -31.0456838 12.02818788 -28.0625 10.1875 C-25.79689611 8.09189663 -25.79689611 8.09189663 -25 5 C-31.6 4.67 -38.2 4.34 -45 4 C-45 3.67 -45 3.34 -45 3 C-43.85660156 2.93941406 -42.71320313 2.87882812 -41.53515625 2.81640625 C-40.04425695 2.73201572 -38.55337225 2.64736698 -37.0625 2.5625 C-36.30775391 2.52318359 -35.55300781 2.48386719 -34.77539062 2.44335938 C-31.08055813 2.55961976 -31.08055813 2.55961976 -28 1 C-18.74369465 -0.35580603 -9.32828252 -0.1065413 0 0 Z " fill="#8D7346" transform="translate(362,112)"/>
<path d="M0 0 C0.33 0 0.66 0 1 0 C1 6.27 1 12.54 1 19 C-19.46 18.67 -39.92 18.34 -61 18 C-61 22.95 -61 27.9 -61 33 C-61.66 33 -62.32 33 -63 33 C-63 33.66 -63 34.32 -63 35 C-55.41 35.33 -47.82 35.66 -40 36 C-40 36.33 -40 36.66 -40 37 C-48.25 37 -56.5 37 -65 37 C-66.20535714 21.86607143 -66.20535714 21.86607143 -65 15 C-61.04 15 -57.08 15 -53 15 C-53 11.04 -53 7.08 -53 3 C-48.36533108 1.84133277 -45.66739961 2.29989006 -41 3 C-41 6.63 -41 10.26 -41 14 C-39.68 14 -38.36 14 -37 14 C-37 12.35 -37 10.7 -37 9 C-32.71 9 -28.42 9 -24 9 C-24 10.65 -24 12.3 -24 14 C-22.68 14 -21.36 14 -20 14 C-20.01160156 13.36191406 -20.02320313 12.72382813 -20.03515625 12.06640625 C-20.04417969 11.24011719 -20.05320312 10.41382813 -20.0625 9.5625 C-20.07410156 8.73878906 -20.08570313 7.91507813 -20.09765625 7.06640625 C-20 5 -20 5 -19 4 C-17.14712498 3.92773498 -15.29166122 3.9161878 -13.4375 3.9375 C-12.42558594 3.94652344 -11.41367187 3.95554688 -10.37109375 3.96484375 C-9.58863281 3.97644531 -8.80617188 3.98804688 -8 4 C-8 7.3 -8 10.6 -8 14 C-5.36 14 -2.72 14 0 14 C0 9.38 0 4.76 0 0 Z M-49 6 C-49 8.64 -49 11.28 -49 14 C-47.68 14 -46.36 14 -45 14 C-45 11.36 -45 8.72 -45 6 C-46.32 6 -47.64 6 -49 6 Z M-15 8 C-15 9.98 -15 11.96 -15 14 C-13.68 14 -12.36 14 -11 14 C-11 12.02 -11 10.04 -11 8 C-12.32 8 -13.64 8 -15 8 Z M-33 12 C-33 12.66 -33 13.32 -33 14 C-31.35 14 -29.7 14 -28 14 C-28 13.34 -28 12.68 -28 12 C-29.65 12 -31.3 12 -33 12 Z " fill="#77663B" transform="translate(311,150)"/>
<path d="M0 0 C13.76880409 -0.09340409 27.53755911 -0.16369393 41.30661488 -0.20724869 C47.69972003 -0.22814969 54.0926128 -0.25651363 60.4855957 -0.30175781 C66.65177697 -0.34512525 72.81775358 -0.36911816 78.98407555 -0.37950897 C81.34009716 -0.38691667 83.6961072 -0.40138159 86.05204201 -0.42292023 C89.34459526 -0.45183253 92.63629593 -0.45596102 95.92895508 -0.45410156 C96.90934753 -0.46848267 97.88973999 -0.48286377 98.89984131 -0.49768066 C99.79586563 -0.49218201 100.69188995 -0.48668335 101.61506653 -0.48101807 C102.78343914 -0.48654882 102.78343914 -0.48654882 103.97541523 -0.49219131 C106.79657161 0.19365236 107.51170504 1.5829389 109 4 C109.67823217 5.32732476 110.31246993 6.6779927 110.90234375 8.046875 C111.23556641 8.81 111.56878906 9.573125 111.91210938 10.359375 C112.25048828 11.14828125 112.58886719 11.9371875 112.9375 12.75 C113.61138411 14.30811355 114.28715566 15.86541219 114.96484375 17.421875 C115.29605225 18.18516113 115.62726074 18.94844727 115.96850586 19.73486328 C116.9853309 21.967787 118.10183676 24.12135057 119.25 26.2890625 C121.53429037 30.80489864 121.54071899 34.18191346 120 39 C117.65744363 43.20942122 114.66257628 45.66783535 110 47 C110.33 46.01 110.66 45.02 111 44 C110.34 43.34 109.68 42.68 109 42 C109.804375 41.54625 110.60875 41.0925 111.4375 40.625 C114.08856572 39.25274335 114.08856572 39.25274335 115 37 C115.91431388 26.60804226 109.53831679 17.45935714 104.74609375 8.7109375 C104 7 104 7 104 4 C72.98 4 41.96 4 10 4 C10 3.67 10 3.34 10 3 C38.71 3 67.42 3 97 3 C97 2.34 97 1.68 97 1 C64.99 1 32.98 1 0 1 C0 0.67 0 0.34 0 0 Z " fill="#4F4323" transform="translate(247,82)"/>
<path d="M0 0 C0.33 0 0.66 0 1 0 C1 5.28 1 10.56 1 16 C1.66 16 2.32 16 3 16 C3 17.32 3 18.64 3 20 C-0.95904795 21.31968265 -4.67937657 21.03155395 -8.796875 20.9140625 C-9.66387024 20.89282318 -10.53086548 20.87158386 -11.4241333 20.84970093 C-13.26003635 20.80343932 -15.09587386 20.75451105 -16.93164062 20.703125 C-19.72512778 20.62568946 -22.51872412 20.55828319 -25.3125 20.4921875 C-27.09897405 20.44591545 -28.88543308 20.39905909 -30.671875 20.3515625 C-31.50128601 20.33171295 -32.33069702 20.3118634 -33.1852417 20.29141235 C-37.86778816 20.15416756 -42.37613863 19.7577436 -47 19 C-45.02 14.545 -45.02 14.545 -43 10 C-44.1446875 10.2784375 -44.1446875 10.2784375 -45.3125 10.5625 C-48 11 -48 11 -51 10 C-50.67 11.98 -50.34 13.96 -50 16 C-50.66 16 -51.32 16 -52 16 C-52 13.69 -52 11.38 -52 9 C-48.7 9 -45.4 9 -42 9 C-42 11.31 -42 13.62 -42 16 C-40.35 16 -38.7 16 -37 16 C-37 12.37 -37 8.74 -37 5 C-32.71 5 -28.42 5 -24 5 C-24 8.63 -24 12.26 -24 16 C-22.68 15.67 -21.36 15.34 -20 15 C-19.67 13.35 -19.34 11.7 -19 10 C-15.37 10 -11.74 10 -8 10 C-8 11.98 -8 13.96 -8 16 C-5.36 16 -2.72 16 0 16 C0 10.72 0 5.44 0 0 Z M-33 8 C-33 10.64 -33 13.28 -33 16 C-31.35 16 -29.7 16 -28 16 C-28 13.36 -28 10.72 -28 8 C-29.65 8 -31.3 8 -33 8 Z M-15 14 C-15 14.66 -15 15.32 -15 16 C-13.68 16 -12.36 16 -11 16 C-11 15.34 -11 14.68 -11 14 C-12.32 14 -13.64 14 -15 14 Z " fill="#AD9A69" transform="translate(311,128)"/>
<path d="M0 0 C0.57234375 0.65484375 1.1446875 1.3096875 1.734375 1.984375 C4.70813811 4.62999873 6.33749161 4.42010906 10.25 4.25 C11.32765625 4.21390625 12.4053125 4.1778125 13.515625 4.140625 C14.33546875 4.09421875 15.1553125 4.0478125 16 4 C16 5.32 16 6.64 16 8 C14.02 8.33 12.04 8.66 10 9 C10 13.62 10 18.24 10 23 C12.64 23.33 15.28 23.66 18 24 C18 21.36 18 18.72 18 16 C21.96 16 25.92 16 30 16 C30 18.64 30 21.28 30 24 C29.67 24 29.34 24 29 24 C29 21.69 29 19.38 29 17 C25.7 17 22.4 17 19 17 C19 19.31 19 21.62 19 24 C19.66 24 20.32 24 21 24 C20.67 22.02 20.34 20.04 20 18 C22.64 18 25.28 18 28 18 C27.25 23.75 27.25 23.75 25 26 C26.98 26.33 28.96 26.66 31 27 C31 27.33 31 27.66 31 28 C20.605 28.495 20.605 28.495 10 29 C9.67 33.95 9.34 38.9 9 44 C11.97 44 14.94 44 18 44 C18 44.33 18 44.66 18 45 C12.555 45.495 12.555 45.495 7 46 C5.40487357 41.12630385 4.80836853 37.33191045 5.0859375 32.1484375 C5.12847656 30.88515625 5.17101562 29.621875 5.21484375 28.3203125 C5.32197386 25.68125372 5.45234806 23.04304013 5.60546875 20.40625 C5.70564786 16.77753985 5.73899733 13.55620779 5 10 C3.05127286 7.94390497 1.45613669 7.01663704 -1.16552734 5.97900391 C-3 5 -3 5 -3.75244141 2.88427734 C-3.83413574 2.26246582 -3.91583008 1.6406543 -4 1 C-2 0 -2 0 0 0 Z M22 20 C22 21.32 22 22.64 22 24 C23.32 24 24.64 24 26 24 C26 22.68 26 21.36 26 20 C24.68 20 23.36 20 22 20 Z " fill="#896F41" transform="translate(240,120)"/>
<path d="M0 0 C13.53 0 27.06 0 41 0 C41 0.66 41 1.32 41 2 C47.6 2 54.2 2 61 2 C60.67 2.66 60.34 3.32 60 4 C53.07 3.67 46.14 3.34 39 3 C41.28675295 8.64102166 41.28675295 8.64102166 43.75 10.375 C48.11255149 11.58681986 51.69054541 11.61107881 55.8125 9.6875 C58.22038518 8.01607792 58.22038518 8.01607792 60 5 C60.66 7.31 61.32 9.62 62 12 C56.65164123 15.56557252 52.34505464 16.61902972 46 16 C41.95985329 14.89814181 39.7849954 13.09443934 37 10 C36.01 10.33 35.02 10.66 34 11 C33.67 11.99 33.34 12.98 33 14 C27.52167516 16.5387359 21.74076208 16.91358736 16 15 C14.8125 12.9375 14.8125 12.9375 14 11 C15.30324219 11.06960937 15.30324219 11.06960937 16.6328125 11.140625 C23.94874608 11.63000477 23.94874608 11.63000477 30.6875 9.3125 C33.43221701 6.87142912 33.43221701 6.87142912 35 2 C23.45 2 11.9 2 0 2 C0 1.34 0 0.68 0 0 Z " fill="#B3A776" transform="translate(251,113)"/>
<path d="M0 0 C2.55426358 0.4561185 3.85018367 0.86568191 5.8125 2.625 C9.03447911 4.65024401 11.39903582 3.76174242 15 3 C16.35091528 5.70183055 16.33858058 8.11808206 16.5625 11.125 C16.68818359 12.76855469 16.68818359 12.76855469 16.81640625 14.4453125 C16.87699219 15.28835937 16.93757813 16.13140625 17 17 C9.01459326 19.26200586 1.31616812 21.41640925 -7 22 C-9.48063781 12.58997722 -9.48063781 12.58997722 -8 8 C-6.02 7.67 -4.04 7.34 -2 7 C-1.34 4.69 -0.68 2.38 0 0 Z M1.75 9.5 C0.13351562 9.91765625 0.13351562 9.91765625 -1.515625 10.34375 C-2.33546875 10.5603125 -3.1553125 10.776875 -4 11 C-4 12.98 -4 14.96 -4 17 C-1.91549283 16.7168444 0.16758367 16.42314331 2.25 16.125 C3.41015625 15.96257812 4.5703125 15.80015625 5.765625 15.6328125 C8.58193313 15.08179569 10.55217557 14.44203518 13 13 C12.67 11.35 12.34 9.7 12 8 C8.20032431 8 5.39962363 8.54792427 1.75 9.5 Z " fill="#9D8857" transform="translate(329,137)"/>
<path d="M0 0 C1.8871875 0.061875 1.8871875 0.061875 3.8125 0.125 C3.4825 0.785 3.1525 1.445 2.8125 2.125 C2.02875 2.063125 1.245 2.00125 0.4375 1.9375 C-0.861875 2.0303125 -0.861875 2.0303125 -2.1875 2.125 C-4.27777837 5.26041756 -4.43644205 5.94698311 -4.42800903 9.50993347 C-4.43075836 10.40595779 -4.43350769 11.30198212 -4.43634033 12.22515869 C-4.42914978 13.20555115 -4.42195923 14.1859436 -4.41455078 15.19604492 C-4.41484283 16.23036148 -4.41513489 17.26467804 -4.41543579 18.33033752 C-4.41404038 21.75546606 -4.39846908 25.18037813 -4.3828125 28.60546875 C-4.37908313 30.97772604 -4.3762358 33.34998488 -4.37423706 35.72224426 C-4.36659468 41.97106161 -4.34694092 48.21978623 -4.3248291 54.46856689 C-4.30438374 60.84296413 -4.29523814 67.21737632 -4.28515625 73.59179688 C-4.26369566 86.10290536 -4.22955236 98.61394497 -4.1875 111.125 C-0.8875 112.115 2.4125 113.105 5.8125 114.125 C5.8125 114.455 5.8125 114.785 5.8125 115.125 C1.5225 115.125 -2.7675 115.125 -7.1875 115.125 C-7.25688689 100.42620291 -7.31045297 85.72744054 -7.34293652 71.02851295 C-7.35841874 64.20384783 -7.37953393 57.3792862 -7.41381836 50.5546875 C-7.44686394 43.97356771 -7.46433321 37.3925275 -7.47213173 30.81132126 C-7.47769214 28.29539671 -7.48854959 25.77947832 -7.50469017 23.2635994 C-7.52633939 19.75063396 -7.52947214 16.23811862 -7.52807617 12.72509766 C-7.538862 11.67565475 -7.54964783 10.62621185 -7.5607605 9.54496765 C-7.55663651 8.59141891 -7.55251251 7.63787018 -7.54826355 6.65542603 C-7.55241162 5.40824012 -7.55241162 5.40824012 -7.55664349 4.13585854 C-7.43482614 3.47227522 -7.31300879 2.8086919 -7.1875 2.125 C-4.09861478 0.06574319 -3.47814073 -0.1140374 0 0 Z " fill="#A69D75" transform="translate(324.1875,219.875)"/>
<path d="M0 0 C1.4765625 1.1015625 1.4765625 1.1015625 3 3 C3.3984375 5.9609375 3.3984375 5.9609375 3.375 9.375 C3.38660156 11.05722656 3.38660156 11.05722656 3.3984375 12.7734375 C2.93822282 16.50027404 2.47129847 18.16156453 0 21 C-2.91128655 21.63296397 -5.72584601 21.47042248 -8.6875 21.3125 C-9.48478516 21.28994141 -10.28207031 21.26738281 -11.10351562 21.24414062 C-13.06981334 21.18526944 -15.03514491 21.09558755 -17 21 C-16.99777939 21.73295792 -16.99555878 22.46591583 -16.99327087 23.22108459 C-16.97283774 30.28989088 -16.95781445 37.35868616 -16.94818783 44.42751408 C-16.94307169 48.05756499 -16.93619293 51.68759061 -16.92456055 55.31762695 C-16.87551756 71.07206798 -16.9585508 86.81046268 -17.44140625 102.55859375 C-17.47070378 103.57824061 -17.47070378 103.57824061 -17.50059319 104.6184864 C-17.55664715 106.51723674 -17.6209925 108.41573696 -17.68579102 110.31420898 C-17.72205093 111.39169907 -17.75831085 112.46918915 -17.79566956 113.57933044 C-18 116 -18 116 -19 117 C-21.81952654 117.29106687 -24.61049542 117.5152617 -27.4375 117.6875 C-28.22705078 117.74744141 -29.01660156 117.80738281 -29.83007812 117.86914062 C-31.8832092 117.99691434 -33.94290624 118.00621478 -36 118 C-36.66 117.34 -37.32 116.68 -38 116 C-35.39674384 115.63752129 -32.79279598 115.28472345 -30.1875 114.9375 C-29.44951172 114.83373047 -28.71152344 114.72996094 -27.95117188 114.62304688 C-24.56825221 114.17913434 -22.27944975 113.90685008 -19 115 C-19.01474869 113.83933014 -19.02949738 112.67866028 -19.04469299 111.4828186 C-19.18277314 100.56412053 -19.31550922 89.64536895 -19.4429636 78.72654152 C-19.50866795 73.11257886 -19.57627922 67.49865245 -19.64819336 61.88476562 C-19.71747747 56.47078373 -19.78182456 51.05676393 -19.84269524 45.64268112 C-19.86683913 43.57332591 -19.89278593 41.50399096 -19.92053413 39.43468094 C-19.95898633 36.54453959 -19.99112587 33.65439375 -20.02172852 30.76416016 C-20.03467453 29.90173203 -20.04762054 29.03930389 -20.06095886 28.15074158 C-20.11405216 22.22810432 -20.11405216 22.22810432 -19 20 C-13.06 19.67 -7.12 19.34 -1 19 C0.65497356 15.69005287 0.10084335 12.00877 0.0625 8.375 C0.05798828 7.57320312 0.05347656 6.77140625 0.04882812 5.9453125 C0.03703168 3.96350994 0.01909605 1.98174567 0 0 Z " fill="#734D2E" transform="translate(465,219)"/>
<path d="M0 0 C2.83203125 0.03255208 5.6640625 0.06510417 8.49609375 0.09765625 C8.49609375 3.72765625 8.49609375 7.35765625 8.49609375 11.09765625 C9.44484375 11.05640625 10.39359375 11.01515625 11.37109375 10.97265625 C14.49609375 11.09765625 14.49609375 11.09765625 16.49609375 13.09765625 C2.96609375 13.09765625 -10.56390625 13.09765625 -24.50390625 13.09765625 C-24.83390625 12.43765625 -25.16390625 11.77765625 -25.50390625 11.09765625 C-23.52390625 11.09765625 -21.54390625 11.09765625 -19.50390625 11.09765625 C-19.50390625 10.10765625 -19.50390625 9.11765625 -19.50390625 8.09765625 C-18.84390625 8.09765625 -18.18390625 8.09765625 -17.50390625 8.09765625 C-17.50390625 9.08765625 -17.50390625 10.07765625 -17.50390625 11.09765625 C-15.52390625 11.09765625 -13.54390625 11.09765625 -11.50390625 11.09765625 C-11.50390625 9.77765625 -11.50390625 8.45765625 -11.50390625 7.09765625 C-13.15390625 7.09765625 -14.80390625 7.09765625 -16.50390625 7.09765625 C-16.50390625 6.76765625 -16.50390625 6.43765625 -16.50390625 6.09765625 C-13.53390625 6.09765625 -10.56390625 6.09765625 -7.50390625 6.09765625 C-7.50390625 7.41765625 -7.50390625 8.73765625 -7.50390625 10.09765625 C-6.18390625 10.09765625 -4.86390625 10.09765625 -3.50390625 10.09765625 C-3.51550781 9.45957031 -3.52710938 8.82148438 -3.5390625 8.1640625 C-3.54808594 7.33777344 -3.55710937 6.51148438 -3.56640625 5.66015625 C-3.57800781 4.83644531 -3.58960938 4.01273438 -3.6015625 3.1640625 C-3.45649662 0.09446858 -3.08407765 0.12028384 0 0 Z M1.49609375 4.09765625 C1.49609375 6.07765625 1.49609375 8.05765625 1.49609375 10.09765625 C2.81609375 10.09765625 4.13609375 10.09765625 5.49609375 10.09765625 C5.49609375 8.11765625 5.49609375 6.13765625 5.49609375 4.09765625 C4.17609375 4.09765625 2.85609375 4.09765625 1.49609375 4.09765625 Z " fill="#DFD39E" transform="translate(294.50390625,153.90234375)"/>
<path d="M0 0 C2 1 4 2 6 3 C6 3.66 6 4.32 6 5 C6.99 5.33 7.98 5.66 9 6 C10.5703125 8.6171875 10.5703125 8.6171875 12.125 11.875 C12.64320313 12.94492188 13.16140625 14.01484375 13.6953125 15.1171875 C17.26291534 23.00009436 17.26071752 33.41790734 15.3515625 41.87109375 C14.41499399 44.11645671 13.3684161 45.98926614 12 48 C11.44441406 48.8353125 10.88882812 49.670625 10.31640625 50.53125 C7.01735447 55.12863829 7.01735447 55.12863829 5 57 C3.68 57 2.36 57 1 57 C1 56.01 1 55.02 1 54 C2.32 54 3.64 54 5 54 C5 52.35 5 50.7 5 49 C5.99 48.505 5.99 48.505 7 48 C7.72693904 46.02111039 8.39816251 44.02045442 9 42 C9.66 42 10.32 42 11 42 C11.144375 40.88625 11.28875 39.7725 11.4375 38.625 C12 35 12 35 13 33 C13.14716542 31.19156337 13.2210887 29.37668434 13.25 27.5625 C13.27578125 26.59441406 13.3015625 25.62632812 13.328125 24.62890625 C12.94773602 21.581266 12.29061469 20.92134683 10 19 C8.87028605 16.47475705 7.98127801 13.94249674 7.125 11.3125 C6.23350274 8.84461659 6.23350274 8.84461659 4 8.125 C2 7 2 7 0.75 3.375 C0.5025 2.26125 0.255 1.1475 0 0 Z " fill="#B4A168" transform="translate(361,223)"/>
<path d="M0 0 C13.86 0 27.72 0 42 0 C41.67 0.66 41.34 1.32 41 2 C38.28553021 2.31241455 35.66090639 2.51336592 32.9375 2.625 C32.17888672 2.66367188 31.42027344 2.70234375 30.63867188 2.7421875 C28.75952805 2.83673562 26.87979664 2.91946756 25 3 C26.28100673 6.41416141 27.36981188 8.48936588 30 11 C30 11.66 30 12.32 30 13 C32.64 13 35.28 13 38 13 C38 13.66 38 14.32 38 15 C31.53133511 15.4128935 28.74189866 14.24729955 22 12 C22 18.27 22 24.54 22 31 C21.34 31 20.68 31 20 31 C19.80538512 28.06281233 19.61902407 25.12550068 19.4375 22.1875 C19.38142578 21.35412109 19.32535156 20.52074219 19.26757812 19.66210938 C19.21923828 18.85966797 19.17089844 18.05722656 19.12109375 17.23046875 C19.0739624 16.49207764 19.02683105 15.75368652 18.97827148 14.99291992 C19 13 19 13 20 10 C19.67 9.67 19.34 9.34 19 9 C19.33 6.69 19.66 4.38 20 2 C13.4 2 6.8 2 0 2 C0 1.34 0 0.68 0 0 Z " fill="#C9C07D" transform="translate(292,113)"/>
<path d="M0 0 C31.68 0 63.36 0 96 0 C96 0.66 96 1.32 96 2 C84.22157802 2.17704171 72.44305704 2.34299228 60.66428089 2.49477577 C55.19495665 2.56560324 49.72574023 2.64025356 44.2565918 2.72363281 C38.97880322 2.80395419 33.70096771 2.87424364 28.42294884 2.93757248 C26.40907555 2.96350053 24.39524549 2.99304618 22.38147926 3.02626419 C19.56139597 3.07216548 16.74143324 3.10521442 13.92114258 3.13525391 C13.08820175 3.1517952 12.25526093 3.16833649 11.39707947 3.18537903 C7.12606291 3.21669636 3.89658096 2.98907787 0 1 C0 0.67 0 0.34 0 0 Z " fill="#D1C499" transform="translate(248,83)"/>
<path d="M0 0 C2.97 0 5.94 0 9 0 C9 3.3 9 6.6 9 10 C10.65 9.67 12.3 9.34 14 9 C14.33 7.35 14.66 5.7 15 4 C18.63 4 22.26 4 26 4 C26 6.31 26 8.62 26 11 C28.31 11 30.62 11 33 11 C33.495 11.99 33.495 11.99 34 13 C29.54168018 13.02891546 25.08338431 13.04676981 20.625 13.0625 C19.35398437 13.07087891 18.08296875 13.07925781 16.7734375 13.08789062 C14.95585937 13.09272461 14.95585937 13.09272461 13.1015625 13.09765625 C11.42054443 13.10551147 11.42054443 13.10551147 9.70556641 13.11352539 C7 13 7 13 5 12 C3.33380554 11.9603287 1.66608987 11.95615553 0 12 C0.33 10.68 0.66 9.36 1 8 C1 8.66 1 9.32 1 10 C2.65 10 4.3 10 6 10 C6 7.03 6 4.06 6 1 C4.02 1 2.04 1 0 1 C0 0.67 0 0.34 0 0 Z M19 8 C19 8.66 19 9.32 19 10 C20.32 10 21.64 10 23 10 C23 9.34 23 8.68 23 8 C21.68 8 20.36 8 19 8 Z " fill="#C6BA7F" transform="translate(277,134)"/>
<path d="M0 0 C0.66 0 1.32 0 2 0 C5 4.38461538 5 4.38461538 5 7 C5.99 6.67 6.98 6.34 8 6 C8.66 6.33 9.32 6.66 10 7 C10.625 9.5625 10.625 9.5625 11 12 C10.34 12 9.68 12 9 12 C9 12.66 9 13.32 9 14 C9.66 14 10.32 14 11 14 C11.66 15.98 12.32 17.96 13 20 C13.67546875 19.98839844 14.3509375 19.97679687 15.046875 19.96484375 C16.38492187 19.95130859 16.38492187 19.95130859 17.75 19.9375 C19.07257813 19.92009766 19.07257813 19.92009766 20.421875 19.90234375 C22.7818838 19.99173802 24.74498524 20.33087179 27 21 C26.85761163 18.95809019 26.71092972 16.91647955 26.5625 14.875 C26.48128906 13.73804688 26.40007812 12.60109375 26.31640625 11.4296875 C26.02269035 8.2459522 25.56875687 5.14489093 25 2 C30.51936945 8.11073046 33 13.80593097 33 22 C25.41 22 17.82 22 10 22 C7.27733643 17.23533876 5.08545414 12.98695555 3 8 C2.443125 6.906875 1.88625 5.81375 1.3125 4.6875 C0 2 0 2 0 0 Z " fill="#CAB573" transform="translate(349,314)"/>
<path d="M0 0 C1.98 0.66 3.96 1.32 6 2 C5.01 2.33 4.02 2.66 3 3 C2.26044505 4.97420944 1.6131969 6.98296405 1 9 C-0.6311786 12.8871785 -2.41588432 16.70816778 -4.16601562 20.54296875 C-4.51470703 21.31511719 -4.86339844 22.08726563 -5.22265625 22.8828125 C-5.53984619 23.57777832 -5.85703613 24.27274414 -6.18383789 24.98876953 C-6.98993253 26.97519121 -7.53362525 28.91024295 -8 31 C-8.99 31 -9.98 31 -11 31 C-11.495 33.475 -11.495 33.475 -12 36 C-11.34 36 -10.68 36 -10 36 C-9.67 35.34 -9.34 34.68 -9 34 C-8.67 34.99 -8.34 35.98 -8 37 C-9.4375 39.1875 -9.4375 39.1875 -11 41 C-13.29256832 37.24018795 -14.54328711 34.49993456 -13.62890625 30.08203125 C-10.44909838 19.55508967 -4.98973428 9.75660202 0 0 Z " fill="#856339" transform="translate(247,83)"/>
<path d="M0 0 C0.33 0.66 0.66 1.32 1 2 C4.465 1.505 4.465 1.505 8 1 C7.01 2.485 7.01 2.485 6 4 C5.34 4 4.68 4 4 4 C8.8884061 14.39072025 13.79070337 24.76526426 19 35 C18.34 35.99 17.68 36.98 17 38 C16.34 37.67 15.68 37.34 15 37 C14.60955794 35.68225804 14.29044914 34.34332728 14 33 C12.78658028 28.51968103 11.49883096 26.06147709 8 23 C5.82586238 20.82586238 5.53353979 19.93446884 5 17 C5 16.01 5 15.02 5 14 C4.53961813 12.25986613 4.03562552 10.53096521 3.5 8.8125 C3.2215625 7.91144531 2.943125 7.01039063 2.65625 6.08203125 C2.4396875 5.39496094 2.223125 4.70789063 2 4 C0.68 4 -0.64 4 -2 4 C-2.33 3.01 -2.66 2.02 -3 1 C-2.01 0.67 -1.02 0.34 0 0 Z " fill="#BDAA6D" transform="translate(355,280)"/>
<path d="M0 0 C9.57 0 19.14 0 29 0 C29 0.99 29 1.98 29 3 C15.94306926 3.88502962 2.95913833 4.12573722 -10.125 4.0625 C-11.97005084 4.05746598 -13.81510305 4.05290649 -15.66015625 4.04882812 C-20.10680543 4.03799383 -24.55338691 4.02083849 -29 4 C-29 3.67 -29 3.34 -29 3 C-17.78 3 -6.56 3 5 3 C5 2.34 5 1.68 5 1 C3.35 1 1.7 1 0 1 C0 0.67 0 0.34 0 0 Z " fill="#90835C" transform="translate(315,183)"/>
<path d="M0 0 C2.31 0.33 4.62 0.66 7 1 C7 4.63 7 8.26 7 12 C8.32 12 9.64 12 11 12 C11 10.35 11 8.7 11 7 C15.29 7 19.58 7 24 7 C19.5 10.375 19.5 10.375 15 10 C15 10.66 15 11.32 15 12 C16.65 12 18.3 12 20 12 C20 12.33 20 12.66 20 13 C18.02 13 16.04 13 14 13 C14 12.01 14 11.02 14 10 C13.34 10 12.68 10 12 10 C12 10.99 12 11.98 12 13 C10.35 13.33 8.7 13.66 7 14 C7 14.33 7 14.66 7 15 C4.03 15 1.06 15 -2 15 C-1.67 14.34 -1.34 13.68 -1 13 C0.32 13 1.64 13 3 13 C3 9.7 3 6.4 3 3 C2.01 3 1.02 3 0 3 C0 2.01 0 1.02 0 0 Z " fill="#B49E6D" transform="translate(263,152)"/>
<path d="M0 0 C2.77160662 2.39366027 4.07263207 4.44508961 5 8 C5.16522734 12.704631 4.69066962 16.65266339 1.75 20.4375 C-0.84872995 22.85904381 -2.62043044 24.0344087 -6 25 C-5.67 24.01 -5.34 23.02 -5 22 C-5.66 21.34 -6.32 20.68 -7 20 C-6.195625 19.54625 -5.39125 19.0925 -4.5625 18.625 C-1.91143428 17.25274335 -1.91143428 17.25274335 -1 15 C-1.06224149 13.35060061 -1.19669217 11.70341398 -1.375 10.0625 C-1.46523438 9.18722656 -1.55546875 8.31195313 -1.6484375 7.41015625 C-1.947703 4.86358482 -1.947703 4.86358482 -3 2 C-2.34 2 -1.68 2 -1 2 C-0.67 1.34 -0.34 0.68 0 0 Z " fill="#6E4C2A" transform="translate(363,104)"/>
<path d="M0 0 C1.35091528 2.70183055 1.33858058 5.11808206 1.5625 8.125 C1.68818359 9.76855469 1.68818359 9.76855469 1.81640625 11.4453125 C1.87699219 12.28835937 1.93757813 13.13140625 2 14 C-0.28977245 14.52909886 -2.58189188 15.04805019 -4.875 15.5625 C-6.78925781 15.99755859 -6.78925781 15.99755859 -8.7421875 16.44140625 C-12 17 -12 17 -14 16 C-14 15.34 -14 14.68 -14 14 C-14.66 13.67 -15.32 13.34 -16 13 C-11.71 12.01 -7.42 11.02 -3 10 C-3 8.35 -3 6.7 -3 5 C-4.32 4.67 -5.64 4.34 -7 4 C-6.34 4 -5.68 4 -5 4 C-5 3.34 -5 2.68 -5 2 C-5.66 1.67 -6.32 1.34 -7 1 C-2.25 0 -2.25 0 0 0 Z " fill="#A58B58" transform="translate(344,140)"/>
<path d="M0 0 C0.33 0 0.66 0 1 0 C0.22095672 14.78132118 0.22095672 14.78132118 -2 21 C-2.66 21 -3.32 21 -4 21 C-3.814375 21.845625 -3.62875 22.69125 -3.4375 23.5625 C-2.96495895 27.2753225 -3.43379666 30.31967828 -4 34 C-3.67 34.66 -3.34 35.32 -3 36 C-0.28553021 36.31241455 2.33909361 36.51336592 5.0625 36.625 C5.82111328 36.66367187 6.57972656 36.70234375 7.36132812 36.7421875 C9.24047195 36.83673562 11.12020336 36.91946756 13 37 C13 37.33 13 37.66 13 38 C6.4 38.33 -0.2 38.66 -7 39 C-7.97066348 35.11734609 -7.99174574 33.94365507 -7.109375 30.25390625 C-6.89563232 29.33947754 -6.68188965 28.42504883 -6.46166992 27.48291016 C-6.22681885 26.5191748 -5.99196777 25.55543945 -5.75 24.5625 C-5.51837158 23.58071777 -5.28674316 22.59893555 -5.0480957 21.58740234 C-4.58531532 19.62756212 -4.1189895 17.66855532 -3.64892578 15.71044922 C-2.80536776 12.18705526 -1.99531469 8.65675021 -1.1875 5.125 C-0.79207124 3.41657297 -0.39643015 1.70819494 0 0 Z " fill="#A39364" transform="translate(229,296)"/>
<path d="M0 0 C0.66 0 1.32 0 2 0 C2 0.66 2 1.32 2 2 C2.66 2 3.32 2 4 2 C4.0497499 7.53180661 4.08588418 13.06348052 4.10986328 18.59545898 C4.11986873 20.47406282 4.13347733 22.35265129 4.15087891 24.23120117 C4.1753688 26.94453748 4.1865379 29.65766638 4.1953125 32.37109375 C4.20563507 33.19959335 4.21595764 34.02809296 4.22659302 34.88169861 C4.22765235 40.49282417 3.4324465 45.57723935 2 51 C1.67 51 1.34 51 1 51 C0.67 34.17 0.34 17.34 0 0 Z " fill="#9F7C4C" transform="translate(426,237)"/>
<path d="M0 0 C13.86 0 27.72 0 42 0 C41.67 0.66 41.34 1.32 41 2 C35.06 2.33 29.12 2.66 23 3 C23 3.66 23 4.32 23 5 C22.01 5 21.02 5 20 5 C19.67 6.32 19.34 7.64 19 9 C19.33 6.69 19.66 4.38 20 2 C13.4 2 6.8 2 0 2 C0 1.34 0 0.68 0 0 Z " fill="#D7CD9D" transform="translate(292,113)"/>
<path d="M0 0 C0.33 0 0.66 0 1 0 C1.12112346 6.78291372 0.91596805 13.4309667 -1 20 C-1.66 20 -2.32 20 -3 20 C-3.02693575 22.12493141 -3.04636628 24.24995912 -3.0625 26.375 C-3.07410156 27.55835938 -3.08570313 28.74171875 -3.09765625 29.9609375 C-3.21466593 32.91921521 -3.21466593 32.91921521 -2 35 C-2.45375 35.7425 -2.9075 36.485 -3.375 37.25 C-5.14037509 40.23755784 -5.60249874 42.58148917 -6 46 C-7.485 46.495 -7.485 46.495 -9 47 C-8.60680601 40.74957142 -7.56636474 35.05906035 -5.82421875 29.05078125 C-3.25298115 19.53354636 -1.71470621 9.70321983 0 0 Z " fill="#C8B36E" transform="translate(239,249)"/>
<path d="M0 0 C0.33 0 0.66 0 1 0 C2.39631344 7.23544235 1.43497641 11.33873427 -2.62109375 17.4375 C-6.03548995 22.13688402 -6.03548995 22.13688402 -8 24 C-9.32 24 -10.64 24 -12 24 C-12 23.01 -12 22.02 -12 21 C-10.68 21 -9.36 21 -8 21 C-8 19.35 -8 17.7 -8 16 C-7.34 15.67 -6.68 15.34 -6 15 C-5.27306096 13.02111039 -4.60183749 11.02045442 -4 9 C-3.34 9 -2.68 9 -2 9 C-1.855625 7.88625 -1.71125 6.7725 -1.5625 5.625 C-1 2 -1 2 0 0 Z " fill="#BDA76B" transform="translate(374,256)"/>
<path d="M0 0 C0.66 0.33 1.32 0.66 2 1 C1.67 1.33 1.34 1.66 1 2 C4.56968839 2.72209031 8.00546834 3.07290251 11.63671875 3.140625 C12.87325195 3.16962891 12.87325195 3.16962891 14.13476562 3.19921875 C15.84806529 3.23330122 17.56175395 3.25131963 19.27539062 3.25390625 C21.61426731 3.32372346 23.72652035 3.44450345 26 4 C28.7419116 7.02030492 29.38864514 9.80784481 29.6875 13.8125 C29.78611328 14.99779297 29.78611328 14.99779297 29.88671875 16.20703125 C29.92410156 16.79871094 29.96148437 17.39039063 30 18 C28 16 28 16 25 6 C17.74 5.67 10.48 5.34 3 5 C2.814375 7.908125 2.814375 7.908125 2.625 10.875 C2.25 16.75 2.25 16.75 0 19 C0 15 0 11 0 7 C-0.66 6.34 -1.32 5.68 -2 5 C-1.46428571 1.46428571 -1.46428571 1.46428571 0 0 Z " fill="#AD9F6E" transform="translate(242,314)"/>
<path d="M0 0 C11.55 0 23.1 0 35 0 C35 0.33 35 0.66 35 1 C32.03 1 29.06 1 26 1 C26 1.66 26 2.32 26 3 C22.80703175 4.06432275 20.79555059 4.03788336 17.45703125 3.87890625 C16.38388672 3.83056641 15.31074219 3.78222656 14.20507812 3.73242188 C13.08552734 3.67634766 11.96597656 3.62027344 10.8125 3.5625 C9.11577148 3.48418945 9.11577148 3.48418945 7.38476562 3.40429688 C4.5895672 3.27456193 1.7947206 3.13959359 -1 3 C-0.67 2.01 -0.34 1.02 0 0 Z " fill="#BFA979" transform="translate(248,183)"/>
<path d="M0 0 C3.63 0 7.26 0 11 0 C11 2.31 11 4.62 11 7 C13.31 7 15.62 7 18 7 C18.33 7.66 18.66 8.32 19 9 C13.72 9 8.44 9 3 9 C2.67 7.02 2.34 5.04 2 3 C1.34 3 0.68 3 0 3 C0 2.01 0 1.02 0 0 Z M4 4 C4 4.66 4 5.32 4 6 C5.32 6 6.64 6 8 6 C8 5.34 8 4.68 8 4 C6.68 4 5.36 4 4 4 Z " fill="#BCB781" transform="translate(292,138)"/>
<path d="M0 0 C1.32 0.33 2.64 0.66 4 1 C4 7.27 4 13.54 4 20 C-1.94 19.67 -7.88 19.34 -14 19 C-14 18.01 -14 17.02 -14 16 C-11 15 -11 15 -7 15 C-6.67 15.66 -6.34 16.32 -6 17 C-3.47266765 17.65555119 -3.47266765 17.65555119 -1 18 C-1 17.01 -1 16.02 -1 15 C-0.01 14.34 0.98 13.68 2 13 C2.36460453 10.33346095 2.36460453 10.33346095 2.1875 7.375 C2.16042969 6.37210938 2.13335937 5.36921875 2.10546875 4.3359375 C2.05326172 3.17964844 2.05326172 3.17964844 2 2 C1.34 2 0.68 2 0 2 C0 1.34 0 0.68 0 0 Z " fill="#A78753" transform="translate(192,220)"/>
<path d="M0 0 C3.96 0 7.92 0 12 0 C12 2.64 12 5.28 12 8 C11.67 8 11.34 8 11 8 C11 5.69 11 3.38 11 1 C7.7 1 4.4 1 1 1 C1 3.31 1 5.62 1 8 C1.66 8 2.32 8 3 8 C2.67 6.02 2.34 4.04 2 2 C4.64 2 7.28 2 10 2 C9.40229885 7.37931034 9.40229885 7.37931034 7.90625 9.6875 C4.95489381 11.71958131 2.33525011 11.28445643 -1.1875 11.1875 C-2.45980469 11.16042969 -3.73210937 11.13335937 -5.04296875 11.10546875 C-6.01878906 11.07066406 -6.99460938 11.03585938 -8 11 C-8 10.34 -8 9.68 -8 9 C-5.36 9 -2.72 9 0 9 C0 6.03 0 3.06 0 0 Z M4 4 C4 5.32 4 6.64 4 8 C5.32 8 6.64 8 8 8 C8 6.68 8 5.36 8 4 C6.68 4 5.36 4 4 4 Z " fill="#877043" transform="translate(258,136)"/>
<path d="M0 0 C1.51400391 0.01740234 1.51400391 0.01740234 3.05859375 0.03515625 C4.07050781 0.04417969 5.08242188 0.05320313 6.125 0.0625 C7.29869141 0.07990234 7.29869141 0.07990234 8.49609375 0.09765625 C8.49609375 0.42765625 8.49609375 0.75765625 8.49609375 1.09765625 C6.51609375 1.42765625 4.53609375 1.75765625 2.49609375 2.09765625 C3.81609375 2.42765625 5.13609375 2.75765625 6.49609375 3.09765625 C6.49609375 5.73765625 6.49609375 8.37765625 6.49609375 11.09765625 C1.54609375 11.09765625 -3.40390625 11.09765625 -8.50390625 11.09765625 C-8.17390625 9.77765625 -7.84390625 8.45765625 -7.50390625 7.09765625 C-7.50390625 8.08765625 -7.50390625 9.07765625 -7.50390625 10.09765625 C-6.18390625 10.09765625 -4.86390625 10.09765625 -3.50390625 10.09765625 C-3.51550781 9.45957031 -3.52710938 8.82148438 -3.5390625 8.1640625 C-3.54808594 7.33777344 -3.55710937 6.51148438 -3.56640625 5.66015625 C-3.57800781 4.83644531 -3.58960938 4.01273438 -3.6015625 3.1640625 C-3.45649662 0.09446858 -3.08407765 0.12028384 0 0 Z M1.49609375 4.09765625 C1.49609375 6.07765625 1.49609375 8.05765625 1.49609375 10.09765625 C2.81609375 10.09765625 4.13609375 10.09765625 5.49609375 10.09765625 C5.49609375 8.11765625 5.49609375 6.13765625 5.49609375 4.09765625 C4.17609375 4.09765625 2.85609375 4.09765625 1.49609375 4.09765625 Z " fill="#827E4A" transform="translate(294.50390625,153.90234375)"/>
<path d="M0 0 C0.33 0.66 0.66 1.32 1 2 C3.1522163 2.41655799 5.32390825 2.73508448 7.5 3 C9.67609175 3.26491552 11.8477837 3.58344201 14 4 C14.33 4.66 14.66 5.32 15 6 C14.34 6 13.68 6 13 6 C12.34 9.3 11.68 12.6 11 16 C10.34 16 9.68 16 9 16 C8.67 13.36 8.34 10.72 8 8 C6.88625 7.9175 5.7725 7.835 4.625 7.75 C1 7 1 7 -0.5 5.125 C-1 3 -1 3 0 0 Z " fill="#9B7542" transform="translate(344,121)"/>
<path d="M0 0 C0.33 0 0.66 0 1 0 C1.33 16.83 1.66 33.66 2 51 C6.95 52.485 6.95 52.485 12 54 C12 54.33 12 54.66 12 55 C8.04 55 4.08 55 0 55 C0 36.85 0 18.7 0 0 Z " fill="#E4DA99" transform="translate(318,280)"/>
<path d="M0 0 C0.33 0 0.66 0 1 0 C1 5.28 1 10.56 1 16 C1.66 16 2.32 16 3 16 C3 17.32 3 18.64 3 20 C0.24401248 20.91866251 -1.19627651 21.101683 -4.01245117 21.02172852 C-5.2133564 20.99158409 -5.2133564 20.99158409 -6.43852234 20.96083069 C-7.29798965 20.93379562 -8.15745697 20.90676056 -9.04296875 20.87890625 C-9.9265657 20.85529526 -10.81016266 20.83168427 -11.72053528 20.80735779 C-14.54302258 20.73077765 -17.3652316 20.64672891 -20.1875 20.5625 C-22.10089784 20.50927366 -24.01430926 20.4565333 -25.92773438 20.40429688 C-30.61866584 20.2751701 -35.30936139 20.13934467 -40 20 C-40 19.67 -40 19.34 -40 19 C-27.13 18.67 -14.26 18.34 -1 18 C-3.31 17.67 -5.62 17.34 -8 17 C-8 16.67 -8 16.34 -8 16 C-5.36 16 -2.72 16 0 16 C0 10.72 0 5.44 0 0 Z " fill="#938A5B" transform="translate(311,128)"/>
<path d="M0 0 C1.98 0 3.96 0 6 0 C6 0.66 6 1.32 6 2 C5.01 2 4.02 2 3 2 C3 4.31 3 6.62 3 9 C4.98 9 6.96 9 9 9 C9 9.66 9 10.32 9 11 C9.66 11.33 10.32 11.66 11 12 C9.41727399 13.58272601 7.61965997 13.34735747 5.4375 13.5625 C4.61121094 13.64628906 3.78492188 13.73007813 2.93359375 13.81640625 C2.29550781 13.87699219 1.65742188 13.93757812 1 14 C-1.48063781 4.58997722 -1.48063781 4.58997722 0 0 Z " fill="#B09F6C" transform="translate(321,145)"/>
<path d="M0 0 C0.66 0.99 1.32 1.98 2 3 C1.67 3.99 1.34 4.98 1 6 C-4.47832484 8.5387359 -10.25923792 8.91358736 -16 7 C-17.1875 4.9375 -17.1875 4.9375 -18 3 C-17.11957031 3.03480469 -16.23914063 3.06960937 -15.33203125 3.10546875 C-13.58986328 3.14607422 -13.58986328 3.14607422 -11.8125 3.1875 C-10.08966797 3.23970703 -10.08966797 3.23970703 -8.33203125 3.29296875 C-4.72960801 2.97622579 -2.90633161 2.08533398 0 0 Z " fill="#8B7D58" transform="translate(283,121)"/>
<path d="M0 0 C0.83265381 0.00523682 1.66530762 0.01047363 2.52319336 0.01586914 C3.42231445 0.0190918 4.32143555 0.02231445 5.24780273 0.02563477 C6.66609375 0.03820312 6.66609375 0.03820312 8.11303711 0.05102539 C9.06243164 0.05553711 10.01182617 0.06004883 10.98999023 0.06469727 C13.34356776 0.07652429 15.69702188 0.09300514 18.05053711 0.11352539 C18.05053711 0.44352539 18.05053711 0.77352539 18.05053711 1.11352539 C16.49592773 1.24307617 16.49592773 1.24307617 14.90991211 1.37524414 C13.53999843 1.5159887 12.17021262 1.65798165 10.80053711 1.80102539 C9.77766602 1.88126953 9.77766602 1.88126953 8.73413086 1.96313477 C5.09980928 2.36890853 3.29934728 2.87516605 0.63256836 5.42993164 C-0.81309298 7.88220161 -1.55148883 9.59009539 -2.01196289 12.36352539 C-2.32133789 13.60102539 -2.63071289 14.83852539 -2.94946289 16.11352539 C-3.93946289 16.44352539 -4.92946289 16.77352539 -5.94946289 17.11352539 C-3.79295492 0.22087965 -3.79295492 0.22087965 0 0 Z " fill="#A79A69" transform="translate(248.949462890625,218.886474609375)"/>
<path d="M0 0 C4.54249104 5.02918651 7.7719787 10.75069653 8.25 17.5625 C8.1675 18.366875 8.085 19.17125 8 20 C6.33388095 20.042721 4.66617115 20.04063832 3 20 C1.1755238 18.1755238 1.65586046 15.2756519 1.5 12.8125 C1.22252626 8.47697278 0.77853118 4.27543371 0 0 Z " fill="#AB955D" transform="translate(374,316)"/>
<path d="M0 0 C0.33 0 0.66 0 1 0 C0.8899083 3.41731792 0.75932939 6.83355574 0.625 10.25 C0.5940625 11.21808594 0.563125 12.18617188 0.53125 13.18359375 C0.49257812 14.11816406 0.45390625 15.05273438 0.4140625 16.015625 C0.3826416 16.87446289 0.3512207 17.73330078 0.31884766 18.61816406 C-0.01897738 21.14176368 -0.80836101 22.77369555 -2 25 C-2.20372926 27.42326463 -2.20372926 27.42326463 -2.0625 29.9375 C-1.98455694 33.45533013 -2.08608182 36.57280682 -3 40 C-3.33 40 -3.66 40 -4 40 C-4.48143523 26.03282317 -4.03804473 13.43010411 0 0 Z " fill="#6C4B26" transform="translate(138,249)"/>
<path d="M0 0 C-0.33 0.99 -0.66 1.98 -1 3 C1.97 3 4.94 3 8 3 C7.67 4.32 7.34 5.64 7 7 C7 6.01 7 5.02 7 4 C-0.26 4 -7.52 4 -15 4 C-15 4.99 -15 5.98 -15 7 C-15.66 7 -16.32 7 -17 7 C-17.33 5.35 -17.66 3.7 -18 2 C-12.12116651 -0.61281488 -6.29268272 -0.18328202 0 0 Z " fill="#846739" transform="translate(252,112)"/>
<path d="M0 0 C0.66 0.33 1.32 0.66 2 1 C2.76342677 3.33799449 3.41124155 5.61779272 4 8 C4.18820312 8.73992187 4.37640625 9.47984375 4.5703125 10.2421875 C5.05475415 12.15948472 5.52830491 14.07952712 6 16 C6.66 16 7.32 16 8 16 C8 19.3 8 22.6 8 26 C6.68 25.67 5.36 25.34 4 25 C4.20625 24.319375 4.4125 23.63875 4.625 22.9375 C5.12386232 19.02974515 4.51883355 16.63199328 3 13 C0.02534458 10.54250049 0.02534458 10.54250049 -3 9 C-2.01 6.03 -1.02 3.06 0 0 Z " fill="#E9DE91" transform="translate(283,307)"/>
<path d="M0 0 C2.31 0 4.62 0 7 0 C7 1.32 7 2.64 7 4 C7.7425 3.979375 8.485 3.95875 9.25 3.9375 C11.70462279 3.99328688 13.66109261 4.3069904 16 5 C16 5.66 16 6.32 16 7 C10.72 7 5.44 7 0 7 C-1 3 -1 3 0 0 Z " fill="#A48656" transform="translate(409,232)"/>
<path d="M0 0 C0.33 0 0.66 0 1 0 C1 3.63 1 7.26 1 11 C-8.9 11 -18.8 11 -29 11 C-29 10.67 -29 10.34 -29 10 C-23.06 10 -17.12 10 -11 10 C-11 9.01 -11 8.02 -11 7 C-7.7 7 -4.4 7 -1 7 C-0.67 4.69 -0.34 2.38 0 0 Z " fill="#715D39" transform="translate(355,176)"/>
<path d="M0 0 C0.33 0.99 0.66 1.98 1 3 C1.66 3 2.32 3 3 3 C2.67 5.64 2.34 8.28 2 11 C0.68 11.33 -0.64 11.66 -2 12 C-2.33 13.65 -2.66 15.3 -3 17 C-2.34 17 -1.68 17 -1 17 C-0.67 16.34 -0.34 15.68 0 15 C0.33 15.99 0.66 16.98 1 18 C-0.4375 20.1875 -0.4375 20.1875 -2 22 C-4.01278051 18.69903997 -5.01117806 16.59243707 -4.9375 12.6875 C-3.7919143 8.18152958 -2.0324639 4.16891433 0 0 Z " fill="#7D5A2C" transform="translate(238,102)"/>
<path d="M0 0 C0.66 0 1.32 0 2 0 C2 11.22 2 22.44 2 34 C1.34 34 0.68 34 0 34 C-0.81014451 26.0721573 -1.10791447 18.21470261 -1.125 10.25 C-1.12951172 9.35635742 -1.13402344 8.46271484 -1.13867188 7.54199219 C-1.13673828 6.70829102 -1.13480469 5.87458984 -1.1328125 5.015625 C-1.13168457 4.26571289 -1.13055664 3.51580078 -1.12939453 2.74316406 C-1 1 -1 1 0 0 Z " fill="#DDCE90" transform="translate(312,148)"/>
<path d="M0 0 C0.66 0 1.32 0 2 0 C1.94199219 1.258125 1.88398438 2.51625 1.82421875 3.8125 C1.45392144 15.57088144 2.77398781 25.04007987 7 36 C7.33 36.99 7.66 37.98 8 39 C7.01 39.495 7.01 39.495 6 40 C3.45399951 37.01121681 2.65462251 34.83421757 2 31 C1.66500488 30.24952393 1.33000977 29.49904785 0.98486328 28.72583008 C-0.15005336 25.58469365 -0.22815773 23.1580091 -0.1953125 19.82421875 C-0.18886719 18.66728516 -0.18242187 17.51035156 -0.17578125 16.31835938 C-0.15902344 15.12017578 -0.14226562 13.92199219 -0.125 12.6875 C-0.11597656 11.46998047 -0.10695312 10.25246094 -0.09765625 8.99804688 C-0.07413037 5.99849726 -0.04125653 2.99934956 0 0 Z " fill="#7B5C36" transform="translate(153,265)"/>
<path d="M0 0 C3.09702247 1.54851123 3.62466616 3.87005211 5 7 C5.87713005 9.70131615 6.57872732 12.428671 7.25 15.1875 C7.435625 15.89841797 7.62125 16.60933594 7.8125 17.34179688 C9.12477257 22.62568228 9.12477257 22.62568228 8 26 C7.65066406 25.07316406 7.30132812 24.14632813 6.94140625 23.19140625 C6.48636719 21.99386719 6.03132813 20.79632813 5.5625 19.5625 C4.88380859 17.77005859 4.88380859 17.77005859 4.19140625 15.94140625 C2.66262973 12.16708259 2.47862069 12.31908046 -1 10 C-0.814375 9.071875 -0.62875 8.14375 -0.4375 7.1875 C0.24123881 3.98656229 0.24123881 3.98656229 -1 1 C-0.67 0.67 -0.34 0.34 0 0 Z " fill="#DACF87" transform="translate(281,297)"/>
<path d="M0 0 C0.66 0 1.32 0 2 0 C4.61177122 8.0918269 6.71240023 15.41161947 6 24 C5.67 24 5.34 24 5 24 C4.87625 22.8553125 4.87625 22.8553125 4.75 21.6875 C4.29037776 18.84000534 4.29037776 18.84000534 1.875 17.75 C0.946875 16.88375 0.946875 16.88375 0 16 C-0.00458572 13.72548178 0.33594495 11.60675138 0.703125 9.36328125 C1.11975498 6.04668732 0.62589513 3.26856343 0 0 Z " fill="#CFC484" transform="translate(274,261)"/>
<path d="M0 0 C1.33333333 0 2.66666667 0 4 0 C4.23509196 4.81938524 3.45184478 8.46298506 2 13 C1.01 13 0.02 13 -1 13 C-1 13.99 -1 14.98 -1 16 C-1.99 16 -2.98 16 -4 16 C-2.98408579 10.53135543 -1.92908943 5.23609987 0 0 Z " fill="#D1BC76" transform="translate(244,233)"/>
<path d="M0 0 C0 1.98 0 3.96 0 6 C-6.93 6 -13.86 6 -21 6 C-21.33 4.68 -21.66 3.36 -22 2 C-21.34 1.67 -20.68 1.34 -20 1 C-19.34 1.33 -18.68 1.66 -18 2 C-18 2.66 -18 3.32 -18 4 C-15.03 4.495 -15.03 4.495 -12 5 C-11.67 4.01 -11.34 3.02 -11 2 C-10.67 2.66 -10.34 3.32 -10 4 C-1.71428571 0 -1.71428571 0 0 0 Z " fill="#A5824A" transform="translate(195,328)"/>
<path d="M0 0 C2.475 0.495 2.475 0.495 5 1 C4.67 2.98 4.34 4.96 4 7 C4.66 7.33 5.32 7.66 6 8 C6.5625 9.9375 6.5625 9.9375 7 12 C7.33 12.66 7.66 13.32 8 14 C8.66 13.34 9.32 12.68 10 12 C10 14.62113708 9.68707555 16.50935112 9 19 C8.67 18.01 8.34 17.02 8 16 C7.36578125 15.69707031 6.7315625 15.39414062 6.078125 15.08203125 C2.28392617 13.10648035 1.2893679 8.89496552 0 5 C-0.25 1.9375 -0.25 1.9375 0 0 Z " fill="#7C5626" transform="translate(138,303)"/>
<path d="M0 0 C0.33 0.66 0.66 1.32 1 2 C0.071875 3.36125 0.071875 3.36125 -0.875 4.75 C-2.44389611 7.14948817 -3.80443821 9.40961612 -5 12 C-5.66 12 -6.32 12 -7 12 C-8.33783393 12.31478446 -9.67203709 12.64587656 -11 13 C-11 14.32 -11 15.64 -11 17 C-11.66 17 -12.32 17 -13 17 C-13.33 18.32 -13.66 19.64 -14 21 C-14.33 20.34 -14.66 19.68 -15 19 C-12.23480994 11.96133439 -6.95335995 3.47667997 0 0 Z " fill="#664827" transform="translate(154,228)"/>
<path d="M0 0 C4.29 0 8.58 0 13 0 C13.33 1.32 13.66 2.64 14 4 C7.73 4 1.46 4 -5 4 C-3.68 3.67 -2.36 3.34 -1 3 C-0.67 2.01 -0.34 1.02 0 0 Z " fill="#906D3C" transform="translate(349,112)"/>
<path d="M0 0 C0.33 0 0.66 0 1 0 C1 3.3 1 6.6 1 10 C0.34 10 -0.32 10 -1 10 C-1 10.66 -1 11.32 -1 12 C6.59 12.33 14.18 12.66 22 13 C22 13.33 22 13.66 22 14 C13.75 14 5.5 14 -3 14 C-3.33 10.37 -3.66 6.74 -4 3 C-3.01 3 -2.02 3 -1 3 C-0.67 2.01 -0.34 1.02 0 0 Z " fill="#5E4C2F" transform="translate(249,173)"/>
<path d="M0 0 C1.4765625 1.1015625 1.4765625 1.1015625 3 3 C3.3984375 5.9609375 3.3984375 5.9609375 3.375 9.375 C3.38273437 10.49648437 3.39046875 11.61796875 3.3984375 12.7734375 C2.94205443 16.46924552 2.594883 18.29469644 0 21 C-2.91703753 21.61313528 -5.72359063 21.47054275 -8.6875 21.3125 C-9.48478516 21.28994141 -10.28207031 21.26738281 -11.10351562 21.24414062 C-13.06981334 21.18526944 -15.03514491 21.09558755 -17 21 C-17 20.67 -17 20.34 -17 20 C-15.85660156 19.95101562 -14.71320313 19.90203125 -13.53515625 19.8515625 C-12.04424527 19.77654811 -10.55336108 19.70099972 -9.0625 19.625 C-8.30775391 19.5940625 -7.55300781 19.563125 -6.77539062 19.53125 C-4.84492605 19.4273685 -2.92057919 19.22104386 -1 19 C0.65497356 15.69005287 0.10084335 12.00877 0.0625 8.375 C0.05798828 7.57320312 0.05347656 6.77140625 0.04882812 5.9453125 C0.03703168 3.96350994 0.01909605 1.98174567 0 0 Z " fill="#4E361E" transform="translate(465,219)"/>
<path d="M0 0 C0.33 0 0.66 0 1 0 C1.02886537 4.31248609 1.04675255 8.62494762 1.0625 12.9375 C1.07087891 14.16919922 1.07925781 15.40089844 1.08789062 16.66992188 C1.09272461 18.4246582 1.09272461 18.4246582 1.09765625 20.21484375 C1.10551147 21.84087524 1.10551147 21.84087524 1.11352539 23.49975586 C1 26 1 26 0 27 C-2.81952654 27.29106687 -5.61049542 27.5152617 -8.4375 27.6875 C-9.22705078 27.74744141 -10.01660156 27.80738281 -10.83007812 27.86914062 C-12.8832092 27.99691434 -14.94290624 28.00621478 -17 28 C-17.66 27.34 -18.32 26.68 -19 26 C-16.39674384 25.63752129 -13.79279598 25.28472345 -11.1875 24.9375 C-10.44951172 24.83373047 -9.71152344 24.72996094 -8.95117188 24.62304688 C-5.56825221 24.17913434 -3.27944975 23.90685008 0 25 C0 16.75 0 8.5 0 0 Z " fill="#6D5430" transform="translate(446,309)"/>
<path d="M0 0 C3.01574271 1.03991128 3.97991051 1.96914829 5.75 4.6875 C7.13220349 8.35033925 7.23295137 11.11747717 7 15 C6.67 14.34 6.34 13.68 6 13 C5.01 12.67 4.02 12.34 3 12 C1.796875 10.29296875 1.796875 10.29296875 0.75 8.1875 C0.39421875 7.50042969 0.0384375 6.81335938 -0.328125 6.10546875 C-1.11193544 3.64922558 -0.84119973 2.39957614 0 0 Z " fill="#86673B" transform="translate(356,93)"/>
<path d="M0 0 C0.66 0 1.32 0 2 0 C2.77403558 4.06368679 3.0984702 7.86425173 3 12 C2.34 12 1.68 12 1 12 C0.67 12.66 0.34 13.32 0 14 C-0.99 14.33 -1.98 14.66 -3 15 C-2.88529863 13.24929483 -2.75780972 11.49942464 -2.625 9.75 C-2.55539063 8.77546875 -2.48578125 7.8009375 -2.4140625 6.796875 C-2.01534751 4.10366811 -1.36492937 2.33036721 0 0 Z " fill="#91632D" transform="translate(141,245)"/>
<path d="M0 0 C0 3.3 0 6.6 0 10 C1.423125 9.938125 1.423125 9.938125 2.875 9.875 C6 10 6 10 8 12 C3.38 12 -1.24 12 -6 12 C-4.68 11.34 -3.36 10.68 -2 10 C-2 7.36 -2 4.72 -2 2 C-4.31 2 -6.62 2 -9 2 C-5.5647952 -0.29013653 -4.014669 -0.17842973 0 0 Z " fill="#E5DFAB" transform="translate(303,155)"/>
<path d="M0 0 C0.66 0 1.32 0 2 0 C1.37077725 3.23001012 0.73688561 4.34620314 -1.375 7.125 C-4.54684848 11.34493754 -5.74575131 15.93201953 -7 21 C-7.33 21 -7.66 21 -8 21 C-7.88590318 18.89521396 -7.75834639 16.79115423 -7.625 14.6875 C-7.55539063 13.51574219 -7.48578125 12.34398437 -7.4140625 11.13671875 C-7 8 -7 8 -5 5 C-4.01 5 -3.02 5 -2 5 C-1.855625 4.360625 -1.71125 3.72125 -1.5625 3.0625 C-1 1 -1 1 0 0 Z " fill="#735831" transform="translate(163,244)"/>
<path d="M0 0 C0.66 0 1.32 0 2 0 C3.31495542 2.60295276 4.62704986 5.20728033 5.9375 7.8125 C6.31068359 8.55048828 6.68386719 9.28847656 7.06835938 10.04882812 C7.42607422 10.76103516 7.78378906 11.47324219 8.15234375 12.20703125 C8.6472229 13.18893433 8.6472229 13.18893433 9.15209961 14.19067383 C10 16 10 16 11 19 C10.34 19.99 9.68 20.98 9 22 C8.34 21.67 7.68 21.34 7 21 C6.60955794 19.68225804 6.29044914 18.34332728 6 17 C4.71278954 12.64328766 2.95537017 8.8115791 0.8046875 4.83203125 C0 3 0 3 0 0 Z " fill="#A99762" transform="translate(363,296)"/>
<path d="M0 0 C2.72923388 -0.0270817 5.45819637 -0.04687847 8.1875 -0.0625 C8.95642578 -0.07087891 9.72535156 -0.07925781 10.51757812 -0.08789062 C14.48526789 -0.10491934 18.12571234 0.01395885 22 1 C22 1.33 22 1.66 22 2 C13.9874678 3.03387512 6.07094823 3.10466648 -2 3 C-1.34 2.67 -0.68 2.34 0 2 C0 1.34 0 0.68 0 0 Z " fill="#D9CB8E" transform="translate(274,184)"/>
<path d="M0 0 C0.33 0 0.66 0 1 0 C1 3.63 1 7.26 1 11 C2.32 11 3.64 11 5 11 C5 9.35 5 7.7 5 6 C9.29 6 13.58 6 18 6 C13.5 9.375 13.5 9.375 9 9 C9 9.66 9 10.32 9 11 C10.65 11 12.3 11 14 11 C14 11.33 14 11.66 14 12 C12.02 12 10.04 12 8 12 C8 11.01 8 10.02 8 9 C7.34 9 6.68 9 6 9 C6 9.99 6 10.98 6 12 C4.02 12 2.04 12 0 12 C0 8.04 0 4.08 0 0 Z " fill="#5C512A" transform="translate(269,153)"/>
<path d="M0 0 C0.66 0 1.32 0 2 0 C2.33 1.98 2.66 3.96 3 6 C3.66 6 4.32 6 5 6 C4.814375 6.78375 4.62875 7.5675 4.4375 8.375 C3.74037734 10.97089775 3.74037734 10.97089775 5 13 C4.21654285 14.17219543 3.42297164 15.33763668 2.625 16.5 C2.18414062 17.1496875 1.74328125 17.799375 1.2890625 18.46875 C0.86367188 18.9740625 0.43828125 19.479375 0 20 C-0.66 20 -1.32 20 -2 20 C-1.67257812 19.16210938 -1.34515625 18.32421875 -1.0078125 17.4609375 C0.09647136 13.6687069 0.19932952 10.56446457 0.125 6.625 C0.10695313 5.37976563 0.08890625 4.13453125 0.0703125 2.8515625 C0.04710937 1.91054687 0.02390625 0.96953125 0 0 Z " fill="#AFA16C" transform="translate(354,247)"/>
<path d="M0 0 C0.99 0.33 1.98 0.66 3 1 C2.01 1.495 2.01 1.495 1 2 C0.67 8.93 0.34 15.86 0 23 C-0.66 23 -1.32 23 -2 23 C-2.19502282 20.08365878 -2.38129328 17.16720455 -2.5625 14.25 C-2.61857422 13.425 -2.67464844 12.6 -2.73242188 11.75 C-2.78076172 10.95078125 -2.82910156 10.1515625 -2.87890625 9.328125 C-2.9260376 8.5949707 -2.97316895 7.86181641 -3.02172852 7.10644531 C-2.99874705 4.87853472 -2.74174388 3.10127368 -2 1 C-1.34 0.67 -0.68 0.34 0 0 Z " fill="#E0CF8F" transform="translate(314,121)"/>
<path d="M0 0 C2.24700861 2.24700861 2.93270437 3.81863599 3.11352539 6.99291992 C3.10828857 7.73131104 3.10305176 8.46970215 3.09765625 9.23046875 C3.09443359 10.03291016 3.09121094 10.83535156 3.08789062 11.66210938 C3.07532227 12.91217773 3.07532227 12.91217773 3.0625 14.1875 C3.05798828 15.03248047 3.05347656 15.87746094 3.04882812 16.74804688 C3.03705403 18.83206155 3.0191189 20.91603977 3 23 C2.34 23 1.68 23 1 23 C0.93941406 21.81921875 0.87882812 20.6384375 0.81640625 19.421875 C0.73197418 17.8645723 0.64732751 16.30728121 0.5625 14.75 C0.52318359 13.97269531 0.48386719 13.19539062 0.44335938 12.39453125 C0.40146484 11.64042969 0.35957031 10.88632813 0.31640625 10.109375 C0.27974854 9.41811523 0.24309082 8.72685547 0.20532227 8.01464844 C0.05158498 5.9591649 0.05158498 5.9591649 -0.58227539 3.86816406 C-1 2 -1 2 0 0 Z " fill="#9A8A5D" transform="translate(374,239)"/>
<path d="M0 0 C0.33 0 0.66 0 1 0 C1.05416188 1.60379341 1.09286638 3.20811406 1.125 4.8125 C1.14820313 5.70582031 1.17140625 6.59914062 1.1953125 7.51953125 C1 10 1 10 -1 13 C-3.7885289 13.22107787 -6.34653181 13.28107535 -9.125 13.1875 C-9.87910156 13.17396484 -10.63320313 13.16042969 -11.41015625 13.14648438 C-13.27374127 13.11109985 -15.13695978 13.05729167 -17 13 C-17 12.34 -17 11.68 -17 11 C-15.25093341 10.80398392 -13.50068154 10.61852597 -11.75 10.4375 C-10.77546875 10.33308594 -9.8009375 10.22867188 -8.796875 10.12109375 C-6.2368648 10.01025532 -4.41851841 10.22261908 -2 11 C-2 10.34 -2 9.68 -2 9 C-1.34 9 -0.68 9 0 9 C0 6.03 0 3.06 0 0 Z " fill="#896334" transform="translate(465,226)"/>
<path d="M0 0 C1.41377341 2.63904371 2.37240135 5.07120629 3 8 C0.69 8.66 -1.62 9.32 -4 10 C-4 9.34 -4 8.68 -4 8 C-7.3 8 -10.6 8 -14 8 C-13.67 7.34 -13.34 6.68 -13 6 C-11.948125 6.061875 -10.89625 6.12375 -9.8125 6.1875 C-5.80886883 5.99060011 -4.10026113 5.46197207 -1 3 C-0.67 2.01 -0.34 1.02 0 0 Z " fill="#A49B6C" transform="translate(310,118)"/>
<path d="M0 0 C2 3 2 3 1.5625 5.375 C1.376875 6.24125 1.19125 7.1075 1 8 C1.185625 8.886875 1.37125 9.77375 1.5625 10.6875 C1.706875 11.450625 1.85125 12.21375 2 13 C1.34 13.66 0.68 14.32 0 15 C-0.60061233 16.90178785 -0.60061233 16.90178785 -1 19 C-1.6070608 21.94858104 -1.79947406 22.79947406 -4 25 C-4.33 23.68 -4.66 22.36 -5 21 C-4.34 21 -3.68 21 -3 21 C-2.01 14.07 -1.02 7.14 0 0 Z " fill="#C6AF6B" transform="translate(230,296)"/>
<path d="M0 0 C0.66 0.33 1.32 0.66 2 1 C1.01 4.96 0.02 8.92 -1 13 C-1.33 11.68 -1.66 10.36 -2 9 C-3.98 9.99 -3.98 9.99 -6 11 C-5.67 8.03 -5.34 5.06 -5 2 C-4.01 1.67 -3.02 1.34 -2 1 C-1.67 1.33 -1.34 1.66 -1 2 C-0.67 1.34 -0.34 0.68 0 0 Z " fill="#B5A467" transform="translate(255,272)"/>
<path d="M0 0 C1.32 0 2.64 0 4 0 C4 0.99 4 1.98 4 3 C4.99 3.33 5.98 3.66 7 4 C5.68 4 4.36 4 3 4 C2.67 6.97 2.34 9.94 2 13 C1.01 12.34 0.02 11.68 -1 11 C-1.328125 8.65234375 -1.328125 8.65234375 -1.25 5.9375 C-1.23453125 5.03902344 -1.2190625 4.14054688 -1.203125 3.21484375 C-1 1 -1 1 0 0 Z " fill="#B79E6E" transform="translate(259,152)"/>
<path d="M0 0 C0.53625 0.639375 1.0725 1.27875 1.625 1.9375 C5.00416058 4.87203419 7.58546572 4.70569771 12 5 C12 5.33 12 5.66 12 6 C10.9275 6.144375 9.855 6.28875 8.75 6.4375 C5.21667785 6.85220246 5.21667785 6.85220246 2.8125 7.75 C1 8 1 8 -1.1875 6.8125 C-3.15781339 4.84218661 -3.62492618 3.71928517 -4 1 C-2 0 -2 0 0 0 Z " fill="#7E5C30" transform="translate(240,120)"/>
<path d="M0 0 C3.06255961 -0.0270491 6.1248786 -0.04686298 9.1875 -0.0625 C10.05181641 -0.07087891 10.91613281 -0.07925781 11.80664062 -0.08789062 C16.00286769 -0.10396812 19.90936886 -0.07559038 24 1 C24 1.33 24 1.66 24 2 C20.93793495 2.22236782 17.87623354 2.42834898 14.8125 2.625 C13.51602539 2.72167969 13.51602539 2.72167969 12.19335938 2.8203125 C7.62337835 3.10046459 4.153774 3.2531859 0 1 C0 0.67 0 0.34 0 0 Z " fill="#B7A27A" transform="translate(248,83)"/>
<path d="M0 0 C0.80566406 0.00322266 1.61132812 0.00644531 2.44140625 0.00976562 C3.70404297 0.02233398 3.70404297 0.02233398 4.9921875 0.03515625 C5.84167969 0.03966797 6.69117188 0.04417969 7.56640625 0.04882812 C9.66669659 0.06062751 11.7669508 0.07856319 13.8671875 0.09765625 C13.8671875 0.42765625 13.8671875 0.75765625 13.8671875 1.09765625 C12.62001953 1.15373047 12.62001953 1.15373047 11.34765625 1.2109375 C10.26097656 1.27667969 9.17429687 1.34242188 8.0546875 1.41015625 C6.43626953 1.49716797 6.43626953 1.49716797 4.78515625 1.5859375 C1.58644768 2.14688907 0.94660112 2.76846321 -1.1328125 5.09765625 C-2.1228125 5.09765625 -3.1128125 5.09765625 -4.1328125 5.09765625 C-4.7928125 5.75765625 -5.4528125 6.41765625 -6.1328125 7.09765625 C-6.1328125 5.11765625 -6.1328125 3.13765625 -6.1328125 1.09765625 C-3.8362755 -0.05061225 -2.54968083 -0.0179555 0 0 Z " fill="#A88A57" transform="translate(414.1328125,219.90234375)"/>
<path d="M0 0 C0.33 0 0.66 0 1 0 C1.66 4.29 2.32 8.58 3 13 C5.97 13 8.94 13 12 13 C12 13.33 12 13.66 12 14 C8.37 14.33 4.74 14.66 1 15 C-0.58455205 10.14730934 -1.31046812 6.1744687 -1 1 C-0.67 0.67 -0.34 0.34 0 0 Z " fill="#735626" transform="translate(246,151)"/>
<path d="M0 0 C0.33 0 0.66 0 1 0 C0.22095672 14.78132118 0.22095672 14.78132118 -2 21 C-2.66 21 -3.32 21 -4 21 C-4.33 21.99 -4.66 22.98 -5 24 C-4.48146768 18.9875209 -3.62530765 14.78031662 -2 10 C-1.2648338 6.67924926 -0.62117685 3.34378178 0 0 Z " fill="#91845A" transform="translate(229,296)"/>
<path d="M0 0 C0.66 0.66 1.32 1.32 2 2 C0.93249206 3.51130338 -0.15460282 5.00878703 -1.25 6.5 C-2.15492188 7.75296875 -2.15492188 7.75296875 -3.078125 9.03125 C-3.71234375 9.6809375 -4.3465625 10.330625 -5 11 C-6.32 11 -7.64 11 -9 11 C-9 10.01 -9 9.02 -9 8 C-7.68 8 -6.36 8 -5 8 C-5 6.35 -5 4.7 -5 3 C-3.68 3 -2.36 3 -1 3 C-0.67 2.01 -0.34 1.02 0 0 Z " fill="#A49662" transform="translate(371,269)"/>
<path d="M0 0 C2.97 0 5.94 0 9 0 C9 3.3 9 6.6 9 10 C9.66 10.33 10.32 10.66 11 11 C9.68 11 8.36 11 7 11 C6 10 6 10 5.90234375 7.93359375 C5.91974609 6.69802734 5.91974609 6.69802734 5.9375 5.4375 C5.94652344 4.61121094 5.95554687 3.78492188 5.96484375 2.93359375 C5.97644531 2.29550781 5.98804688 1.65742188 6 1 C4.02 1 2.04 1 0 1 C0 0.67 0 0.34 0 0 Z " fill="#CDBF85" transform="translate(277,134)"/>
<path d="M0 0 C1.35091528 2.70183055 1.33858058 5.11808206 1.5625 8.125 C1.64628906 9.22070312 1.73007812 10.31640625 1.81640625 11.4453125 C1.87699219 12.28835937 1.93757813 13.13140625 2 14 C1.34 13.67 0.68 13.34 0 13 C0 10.03 0 7.06 0 4 C-0.66 4 -1.32 4 -2 4 C-2.33 5.32 -2.66 6.64 -3 8 C-3 7.01 -3 6.02 -3 5 C-4.32 4.67 -5.64 4.34 -7 4 C-6.34 4 -5.68 4 -5 4 C-5 3.34 -5 2.68 -5 2 C-5.66 1.67 -6.32 1.34 -7 1 C-2.25 0 -2.25 0 0 0 Z " fill="#746542" transform="translate(344,140)"/>
<path d="M0 0 C1.65 0 3.3 0 5 0 C5.33 2.64 5.66 5.28 6 8 C5.34 7.67 4.68 7.34 4 7 C4 6.34 4 5.68 4 5 C2.02 5.66 0.04 6.32 -2 7 C-1.34 4.69 -0.68 2.38 0 0 Z " fill="#AA8F5B" transform="translate(338,116)"/>
<path d="M0 0 C0.99 0 1.98 0 3 0 C4.61726841 3.53777464 5.10748399 6.13057648 5 10 C5.33 10.33 5.66 10.66 6 11 C6.07258946 13.18639453 6.08373783 15.37500389 6.0625 17.5625 C6.05347656 18.76003906 6.04445313 19.95757812 6.03515625 21.19140625 C6.02355469 22.11824219 6.01195312 23.04507812 6 24 C5.67 24 5.34 24 5 24 C4.81824219 22.87464844 4.81824219 22.87464844 4.6328125 21.7265625 C3.33901366 10.56834032 3.33901366 10.56834032 0 0 Z " fill="#958355" transform="translate(256,268)"/>
<path d="M0 0 C2.04219706 1.69179328 2.91793306 2.63727666 3.51171875 5.26171875 C3.56972656 6.06222656 3.62773437 6.86273438 3.6875 7.6875 C3.75324219 8.49574219 3.81898438 9.30398437 3.88671875 10.13671875 C3.92410156 10.75160156 3.96148437 11.36648437 4 12 C3.01 12 2.02 12 1 12 C-1.875 5.375 -1.875 5.375 -3 2 C-2.34 2 -1.68 2 -1 2 C-0.67 1.34 -0.34 0.68 0 0 Z " fill="#7F5D2D" transform="translate(363,104)"/>
<path d="M0 0 C0.99 0 1.98 0 3 0 C3 1.32 3 2.64 3 4 C-1.084979 4.54466387 -4.8725485 5 -9 5 C-8.67 4.01 -8.34 3.02 -8 2 C-6.865625 1.855625 -5.73125 1.71125 -4.5625 1.5625 C-1.19222799 1.38828522 -1.19222799 1.38828522 0 0 Z " fill="#9C7C48" transform="translate(253,124)"/>
<path d="M0 0 C1.32 0 2.64 0 4 0 C4 0.66 4 1.32 4 2 C6.97 2 9.94 2 13 2 C13 2.99 13 3.98 13 5 C11.741875 5.020625 10.48375 5.04125 9.1875 5.0625 C8.47980469 5.07410156 7.77210938 5.08570313 7.04296875 5.09765625 C5 5 5 5 2 4 C0.8125 1.9375 0.8125 1.9375 0 0 Z " fill="#B2A06F" transform="translate(265,124)"/>
<path d="M0 0 C0 0.33 0 0.66 0 1 C-1.35931641 1.03867188 -1.35931641 1.03867188 -2.74609375 1.078125 C-10.32284691 1.43090504 -16.36387812 2.22548623 -23 6 C-23 5.01 -23 4.02 -23 3 C-21.68 3 -20.36 3 -19 3 C-18.67 2.01 -18.34 1.02 -18 0 C-11.96496237 -1.50875941 -6.10261631 -0.64186094 0 0 Z " fill="#6D5532" transform="translate(189,239)"/>
<path d="M0 0 C0.33 0 0.66 0 1 0 C1 1.98 1 3.96 1 6 C2.32 6.33 3.64 6.66 5 7 C1.22777911 8.75163456 -1.666639 9.22490027 -5.8125 9.125 C-7.27623047 9.09792969 -7.27623047 9.09792969 -8.76953125 9.0703125 C-9.50558594 9.04710937 -10.24164063 9.02390625 -11 9 C-10.67 8.34 -10.34 7.68 -10 7 C-7.69 7 -5.38 7 -3 7 C-2.67 6.34 -2.34 5.68 -2 5 C-1.67 5.33 -1.34 5.66 -1 6 C-0.67 4.02 -0.34 2.04 0 0 Z " fill="#8B7647" transform="translate(261,158)"/>
<path d="M0 0 C0.33 0 0.66 0 1 0 C1.12375 0.804375 1.2475 1.60875 1.375 2.4375 C1.58125 3.283125 1.7875 4.12875 2 5 C2.66 5.33 3.32 5.66 4 6 C3.67 8.64 3.34 11.28 3 14 C2.01 14.33 1.02 14.66 0 15 C0 10.05 0 5.1 0 0 Z " fill="#A07C4A" transform="translate(427,320)"/>
<path d="M0 0 C-0.33 0.66 -0.66 1.32 -1 2 C-3.64860427 2.59355614 -6.29197322 2.74209269 -9 3 C-9 3.99 -9 4.98 -9 6 C-9.66 6 -10.32 6 -11 6 C-11.33 4.35 -11.66 2.7 -12 1 C-7.53763531 -0.80619523 -4.68965706 -1.11658501 0 0 Z " fill="#966F38" transform="translate(246,113)"/>
<path d="M0 0 C0.33 0 0.66 0 1 0 C1.12112346 6.78291372 0.91596805 13.4309667 -1 20 C-1.66 20 -2.32 20 -3 20 C-3.33 20.99 -3.66 21.98 -4 23 C-3.20736384 15.23216563 -1.58110513 7.6370361 0 0 Z " fill="#786C47" transform="translate(239,249)"/>
<path d="M0 0 C6.2266447 0.75934691 11.47608854 3.12756604 17 6 C13.65035056 7.08754852 12.22387221 7.08735791 8.88671875 5.78515625 C7.83097656 5.21667969 6.77523437 4.64820313 5.6875 4.0625 C4.61886719 3.49660156 3.55023438 2.93070312 2.44921875 2.34765625 C1.64097656 1.90292969 0.83273438 1.45820313 0 1 C0 0.67 0 0.34 0 0 Z " fill="#755C35" transform="translate(153,326)"/>
<path d="M0 0 C2.31 0 4.62 0 7 0 C6.625 2.4375 6.625 2.4375 6 5 C5.01 5.495 5.01 5.495 4 6 C4 5.34 4 4.68 4 4 C2.02 4 0.04 4 -2 4 C-2 3.34 -2 2.68 -2 2 C-1.34 2 -0.68 2 0 2 C0 1.34 0 0.68 0 0 Z " fill="#987C4B" transform="translate(188,315)"/>
<path d="M0 0 C-0.125 2.3125 -0.125 2.3125 -1 5 C-4.0625 6.8125 -4.0625 6.8125 -7 8 C-6.67 7.01 -6.34 6.02 -6 5 C-6.66 4.34 -7.32 3.68 -8 3 C-3.375 0 -3.375 0 0 0 Z " fill="#825B36" transform="translate(364,121)"/>
<path d="M0 0 C1.98 0.495 1.98 0.495 4 1 C4 7.27 4 13.54 4 20 C2.35 20 0.7 20 -1 20 C0.32 19.67 1.64 19.34 3 19 C2.67 13.39 2.34 7.78 2 2 C1.34 2 0.68 2 0 2 C0 1.34 0 0.68 0 0 Z " fill="#967C50" transform="translate(192,220)"/>
<path d="M0 0 C0.66 0 1.32 0 2 0 C2 0.99 2 1.98 2 3 C3.65 3 5.3 3 7 3 C7 3.66 7 4.32 7 5 C3.04 5 -0.92 5 -5 5 C-5.33 4.34 -5.66 3.68 -6 3 C-4.02 3 -2.04 3 0 3 C0 2.01 0 1.02 0 0 Z " fill="#CEBC8A" transform="translate(275,162)"/>
<path d="M0 0 C0.66 0 1.32 0 2 0 C5.06802099 5.62470514 6.89061647 10.69403048 8 17 C5.81311947 14.81311947 4.95536922 12.71012427 3.796875 9.87890625 C3.04782722 8.11276907 2.18331767 6.39688284 1.3125 4.6875 C0 2 0 2 0 0 Z " fill="#8F835B" transform="translate(349,314)"/>
<path d="M0 0 C0 1.65 0 3.3 0 5 C-2.64 5 -5.28 5 -8 5 C-3.375 0 -3.375 0 0 0 Z " fill="#B08D55" transform="translate(195,328)"/>
<path d="M0 0 C0.99 0 1.98 0 3 0 C3.53093324 1.93475671 4.04942317 3.87293155 4.5625 5.8125 C4.85253906 6.89144531 5.14257812 7.97039062 5.44140625 9.08203125 C6 12 6 12 5 15 C4.16260219 12.8765984 3.33019717 10.7512272 2.5 8.625 C1.80390625 6.84996094 1.80390625 6.84996094 1.09375 5.0390625 C0 2 0 2 0 0 Z " fill="#AAA575" transform="translate(284,308)"/>
<path d="M0 0 C0 0.66 0 1.32 0 2 C-0.66 2 -1.32 2 -2 2 C-2 2.66 -2 3.32 -2 4 C-3.98 4 -5.96 4 -8 4 C-8.33 3.01 -8.66 2.02 -9 1 C-6.04335481 -0.4783226 -3.25770263 -0.06032783 0 0 Z " fill="#A38456" transform="translate(353,82)"/>
<path d="M0 0 C0.99 0 1.98 0 3 0 C3.48828125 1.98567708 3.9765625 3.97135417 4.46484375 5.95703125 C4.91010705 7.65683202 5.44433985 9.33301954 6 11 C3.5625 10.3125 3.5625 10.3125 1 9 C-0.02478184 5.92565449 0 3.22696554 0 0 Z " fill="#CBB46F" transform="translate(360,293)"/>
<path d="M0 0 C0.33 1.32 0.66 2.64 1 4 C1.66 4 2.32 4 3 4 C3 8.29 3 12.58 3 17 C2.67 17 2.34 17 2 17 C0.7017874 11.23918159 -0.25706972 5.91260345 0 0 Z " fill="#A17C49" transform="translate(246,144)"/>
<path d="M0 0 C4 1 4 1 6 4 C4.824375 4.12375 4.824375 4.12375 3.625 4.25 C2.325625 4.62125 2.325625 4.62125 1 5 C0.34 6.32 -0.32 7.64 -1 9 C-0.67 6.03 -0.34 3.06 0 0 Z " fill="#B19F6F" transform="translate(329,137)"/>
<path d="M0 0 C3.63 0 7.26 0 11 0 C10.67 0.99 10.34 1.98 10 3 C7.36 3 4.72 3 2 3 C2 2.34 2 1.68 2 1 C1.34 0.67 0.68 0.34 0 0 Z " fill="#CCC58F" transform="translate(295,126)"/>
<path d="M0 0 C0.33 0.66 0.66 1.32 1 2 C0.38125 2.9075 -0.2375 3.815 -0.875 4.75 C-2.44389611 7.14948817 -3.80443821 9.40961612 -5 12 C-5.75 9.875 -5.75 9.875 -6 7 C-2.90666667 1.45333333 -2.90666667 1.45333333 0 0 Z " fill="#7B5B2D" transform="translate(154,228)"/>
<path d="M0 0 C0 3.3 0 6.6 0 10 C-0.66 10 -1.32 10 -2 10 C-4 4.375 -4 4.375 -4 1 C-2 0 -2 0 0 0 Z " fill="#DCD18A" transform="translate(269,227)"/>
<path d="M0 0 C2 1 4 2 6 3 C6 3.66 6 4.32 6 5 C6.99 5.33 7.98 5.66 9 6 C6.53721199 7.231394 4.7204945 7.07159196 2 7 C1.34 4.69 0.68 2.38 0 0 Z " fill="#9F8D60" transform="translate(361,223)"/>
<path d="M0 0 C0.80050781 0.12761719 1.60101563 0.25523437 2.42578125 0.38671875 C3.23402344 0.50660156 4.04226563 0.62648437 4.875 0.75 C5.48988281 0.85699219 6.10476563 0.96398437 6.73828125 1.07421875 C6.73828125 1.73421875 6.73828125 2.39421875 6.73828125 3.07421875 C2.77828125 3.07421875 -1.18171875 3.07421875 -5.26171875 3.07421875 C-2.26171875 0.07421875 -2.26171875 0.07421875 0 0 Z " fill="#D9CD8A" transform="translate(313.26171875,182.92578125)"/>
<path d="M0 0 C3.3 0 6.6 0 10 0 C9.01 0.495 9.01 0.495 8 1 C8 1.66 8 2.32 8 3 C5.03 3 2.06 3 -1 3 C-0.67 2.01 -0.34 1.02 0 0 Z " fill="#A48A52" transform="translate(248,183)"/>
<path d="M0 0 C0.33 0 0.66 0 1 0 C1 4.29 1 8.58 1 13 C0.01 13.33 -0.98 13.66 -2 14 C-1.85795259 12.41632253 -1.71119847 10.83306682 -1.5625 9.25 C-1.48128906 8.36828125 -1.40007812 7.4865625 -1.31640625 6.578125 C-1.03761535 4.30649548 -0.61209423 2.20148177 0 0 Z " fill="#958459" transform="translate(232,282)"/>
<path d="M0 0 C1.98 0 3.96 0 6 0 C6 0.66 6 1.32 6 2 C5.01 2 4.02 2 3 2 C2.67 3.32 2.34 4.64 2 6 C1.01 5.67 0.02 5.34 -1 5 C-0.67 3.35 -0.34 1.7 0 0 Z " fill="#C0AE76" transform="translate(321,145)"/>
<path d="M0 0 C0.66 0 1.32 0 2 0 C1.39174965 4.34464536 0.73832608 8.67551867 0 13 C-0.33 13 -0.66 13 -1 13 C-1 10.36 -1 7.72 -1 5 C-1.66 4.67 -2.32 4.34 -3 4 C-1.625 2 -1.625 2 0 0 Z " fill="#B4A46D" transform="translate(251,285)"/>
<path d="M0 0 C0.66 0.33 1.32 0.66 2 1 C1.67 3.97 1.34 6.94 1 10 C0.01 10 -0.98 10 -2 10 C-1.34 6.7 -0.68 3.4 0 0 Z " fill="#A49866" transform="translate(242,239)"/>
<path d="M0 0 C0.66 0.66 1.32 1.32 2 2 C-0.36292656 4.52588702 -1.66462511 5.88820837 -5 7 C-5.66 5.68 -6.32 4.36 -7 3 C-4.69 2.01 -2.38 1.02 0 0 Z " fill="#C3AF71" transform="translate(358,240)"/>
<path d="M0 0 C2.64 0 5.28 0 8 0 C8 0.99 8 1.98 8 3 C5.36 3 2.72 3 0 3 C0 2.01 0 1.02 0 0 Z " fill="#BA9C6A" transform="translate(336,183)"/>
<path d="M0 0 C0.66 0.33 1.32 0.66 2 1 C2 3.31 2 5.62 2 8 C1.67 7.01 1.34 6.02 1 5 C0.01 5 -0.98 5 -2 5 C-2.33 5.66 -2.66 6.32 -3 7 C-3.1875 4.625 -3.1875 4.625 -3 2 C-2.01 1.34 -1.02 0.68 0 0 Z " fill="#665128" transform="translate(248,128)"/>
<path d="M0 0 C0.33 0 0.66 0 1 0 C1 3.3 1 6.6 1 10 C-0.32 9.67 -1.64 9.34 -3 9 C-2.67 6.69 -2.34 4.38 -2 2 C-1.34 2 -0.68 2 0 2 C0 1.34 0 0.68 0 0 Z " fill="#DBD395" transform="translate(290,323)"/>
<path d="M0 0 C0.33 1.32 0.66 2.64 1 4 C2.32 4 3.64 4 5 4 C4.25 8.75 4.25 8.75 2 11 C0.57741188 7.17679443 -0.24042276 4.08718695 0 0 Z " fill="#6C4821" transform="translate(135,292)"/>
<path d="M0 0 C0.99 0.33 1.98 0.66 3 1 C4.54613006 5.09724467 5.29227216 7.81857651 4 12 C3.32645501 10.56570999 2.66140299 9.12742943 2 7.6875 C1.443125 6.48673828 1.443125 6.48673828 0.875 5.26171875 C0 3 0 3 0 0 Z " fill="#9E9560" transform="translate(339,291)"/>
<path d="M0 0 C1.98 0 3.96 0 6 0 C6 0.66 6 1.32 6 2 C7.32 2.33 8.64 2.66 10 3 C6.04 3 2.08 3 -2 3 C-1.34 2.67 -0.68 2.34 0 2 C0 1.34 0 0.68 0 0 Z " fill="#CEBB85" transform="translate(274,184)"/>
<path d="M0 0 C-0.99 0.495 -0.99 0.495 -2 1 C-2 1.66 -2 2.32 -2 3 C-4.64 3 -7.28 3 -10 3 C-10 2.34 -10 1.68 -10 1 C-6.78548731 -0.60725635 -3.56387464 -0.05748185 0 0 Z " fill="#B49A66" transform="translate(266,183)"/>
<path d="M0 0 C0.66 0 1.32 0 2 0 C2 0.66 2 1.32 2 2 C4.64 2 7.28 2 10 2 C10 2.66 10 3.32 10 4 C5.83861737 4.08159574 2.0527516 3.98248524 -2 3 C-1.34 2.01 -0.68 1.02 0 0 Z " fill="#D0C182" transform="translate(320,124)"/>
<path d="M0 0 C1.32 0 2.64 0 4 0 C4 0.99 4 1.98 4 3 C4.99 3.33 5.98 3.66 7 4 C5.34385343 4.38218767 3.67542976 4.71395102 2 5 C1.67 4.67 1.34 4.34 1 4 C0.34 5.32 -0.32 6.64 -1 8 C-1.04241723 5.66705225 -1.04092937 3.33297433 -1 1 C-0.67 0.67 -0.34 0.34 0 0 Z " fill="#956A41" transform="translate(259,152)"/>
<path d="M0 0 C2.64 0.33 5.28 0.66 8 1 C8 1.33 8 1.66 8 2 C6.35 2 4.7 2 3 2 C2.67 3.65 2.34 5.3 2 7 C1.34 6.67 0.68 6.34 0 6 C0 4.02 0 2.04 0 0 Z " fill="#C0B178" transform="translate(275,134)"/>
<path d="M0 0 C0.66 0.33 1.32 0.66 2 1 C2 2.65 2 4.3 2 6 C0.68 6 -0.64 6 -2 6 C-2 4.35 -2 2.7 -2 1 C-1.34 0.67 -0.68 0.34 0 0 Z " fill="#866A3F" transform="translate(353,83)"/>
<path d="M0 0 C3 1 3 1 4 3 C4.66 2.34 5.32 1.68 6 1 C6 3.62113708 5.68707555 5.50935112 5 8 C4.67 7.01 4.34 6.02 4 5 C1.99983534 3.79117904 1.99983534 3.79117904 0 3 C0 2.01 0 1.02 0 0 Z " fill="#71532A" transform="translate(142,314)"/>
<path d="M0 0 C0.66 0.33 1.32 0.66 2 1 C2.40729228 3.32156597 2.74438677 5.6568787 3 8 C2.01 7.67 1.02 7.34 0 7 C-1.1875 3.9375 -1.1875 3.9375 -2 1 C-1.34 0.67 -0.68 0.34 0 0 Z " fill="#DFCA7E" transform="translate(261,268)"/>
<path d="M0 0 C2.97 0 5.94 0 9 0 C8.34 1.98 7.68 3.96 7 6 C6.34 5.67 5.68 5.34 5 5 C5 3.68 5 2.36 5 1 C3.35 1 1.7 1 0 1 C0 0.67 0 0.34 0 0 Z " fill="#CFBF85" transform="translate(278,160)"/>
<path d="M0 0 C0.33 0 0.66 0 1 0 C1.33 3.3 1.66 6.6 2 10 C1.34 10 0.68 10 0 10 C-1.49106457 7.01787087 -1.11941467 4.28390342 -1 1 C-0.67 0.67 -0.34 0.34 0 0 Z " fill="#866A32" transform="translate(246,151)"/>
<path d="M0 0 C2.97 0.495 2.97 0.495 6 1 C5.34 2.98 4.68 4.96 4 7 C3.67 5.68 3.34 4.36 3 3 C2.01 3 1.02 3 0 3 C0 2.01 0 1.02 0 0 Z " fill="#B59468" transform="translate(263,152)"/>
<path d="M0 0 C3.63 0.33 7.26 0.66 11 1 C11 1.33 11 1.66 11 2 C8.36 2 5.72 2 3 2 C2.67 2.99 2.34 3.98 2 5 C1.34 5 0.68 5 0 5 C0 3.35 0 1.7 0 0 Z " fill="#906F3A" transform="translate(247,143)"/>
<path d="M0 0 C2.64 0 5.28 0 8 0 C7.67 1.98 7.34 3.96 7 6 C6.67 4.68 6.34 3.36 6 2 C4.68 2 3.36 2 2 2 C1.67 3.32 1.34 4.64 1 6 C0.67 4.02 0.34 2.04 0 0 Z " fill="#907A4A" transform="translate(260,138)"/>
<path d="M0 0 C0.66 0.33 1.32 0.66 2 1 C2 1.66 2 2.32 2 3 C2.66 3.33 3.32 3.66 4 4 C3.01 4.495 3.01 4.495 2 5 C1.67 5.99 1.34 6.98 1 8 C0.34 8 -0.32 8 -1 8 C-1.125 2.25 -1.125 2.25 0 0 Z " fill="#AD9D69" transform="translate(338,236)"/>
<path d="M0 0 C2.31 0 4.62 0 7 0 C7 0.99 7 1.98 7 3 C5.02 3.33 3.04 3.66 1 4 C0.67 2.68 0.34 1.36 0 0 Z " fill="#B08C44" transform="translate(409,232)"/>
<path d="M0 0 C0 1.98 0 3.96 0 6 C-0.66 4.68 -1.32 3.36 -2 2 C-4.31 2 -6.62 2 -9 2 C-5.5647952 -0.29013653 -4.014669 -0.17842973 0 0 Z " fill="#E9E5B2" transform="translate(303,155)"/>
<path d="M0 0 C0.33 0.66 0.66 1.32 1 2 C3.01669827 3.13350534 3.01669827 3.13350534 5 4 C5 4.66 5 5.32 5 6 C3.35 6 1.7 6 0 6 C-1 3 -1 3 0 0 Z " fill="#9A814F" transform="translate(344,121)"/>
<path d="M0 0 C2 3.75 2 3.75 2 6 C2.66 6 3.32 6 4 6 C4.33 5.34 4.66 4.68 5 4 C5.33 4.99 5.66 5.98 6 7 C4.5625 9.1875 4.5625 9.1875 3 11 C0.84694043 7.14243493 -0.39253254 4.44870215 0 0 Z " fill="#6A4A22" transform="translate(233,113)"/>
<path d="M0 0 C1.98 0 3.96 0 6 0 C6 0.66 6 1.32 6 2 C6.99 2.33 7.98 2.66 9 3 C6.03 3 3.06 3 0 3 C0 2.01 0 1.02 0 0 Z " fill="#A17D48" transform="translate(351,113)"/>
<path d="M0 0 C2.32472205 2.85306797 3.7508258 5.54074837 5 9 C3.68 8.67 2.36 8.34 1 8 C0.67 5.36 0.34 2.72 0 0 Z " fill="#AB9E6D" transform="translate(358,284)"/>
<path d="M0 0 C-0.99 0.495 -0.99 0.495 -2 1 C-2.33 1.99 -2.66 2.98 -3 4 C-3.33 3.34 -3.66 2.68 -4 2 C-5.98 2.33 -7.96 2.66 -10 3 C-8.0130571 -0.97388579 -3.91761109 -0.08705802 0 0 Z " fill="#957C49" transform="translate(178,219)"/>
<path d="M0 0 C2.3431213 0.25561323 4.67843403 0.59270772 7 1 C7.33 1.66 7.66 2.32 8 3 C5.36 3 2.72 3 0 3 C0 2.01 0 1.02 0 0 Z " fill="#AC8B59" transform="translate(344,183)"/>
<path d="M0 0 C0.99 0 1.98 0 3 0 C2.34 1.98 1.68 3.96 1 6 C1.66 6.33 2.32 6.66 3 7 C2.01 7.33 1.02 7.66 0 8 C0 5.36 0 2.72 0 0 Z " fill="#CBB677" transform="translate(240,249)"/>
<path d="M0 0 C2.31 0 4.62 0 7 0 C6.67 0.99 6.34 1.98 6 3 C4.02 3 2.04 3 0 3 C0 2.01 0 1.02 0 0 Z " fill="#CEBD81" transform="translate(320,184)"/>
<path d="M0 0 C2.64 0.33 5.28 0.66 8 1 C8 1.33 8 1.66 8 2 C6.35 2 4.7 2 3 2 C3 2.66 3 3.32 3 4 C4.65 4 6.3 4 8 4 C8 4.33 8 4.66 8 5 C6.02 5 4.04 5 2 5 C2 4.01 2 3.02 2 2 C1.34 2 0.68 2 0 2 C0 1.34 0 0.68 0 0 Z " fill="#978A52" transform="translate(275,160)"/>
<path d="M0 0 C0.33 0 0.66 0 1 0 C1 3.3 1 6.6 1 10 C0.01 9.01 -0.98 8.02 -2 7 C-1.75 5 -1.75 5 -1 3 C-0.67 2.01 -0.34 1.02 0 0 Z " fill="#C3AE7E" transform="translate(268,155)"/>
<path d="M0 0 C1.32 1.32 2.64 2.64 4 4 C2.125 5.0625 2.125 5.0625 0 6 C-0.66 5.67 -1.32 5.34 -2 5 C-2 4.34 -2 3.68 -2 3 C-1.34 3 -0.68 3 0 3 C0 2.01 0 1.02 0 0 Z " fill="#B7A76F" transform="translate(317,120)"/>
<path d="M0 0 C1.98 0.66 3.96 1.32 6 2 C5.01 2.33 4.02 2.66 3 3 C2.67 3.66 2.34 4.32 2 5 C-0.0625 5.625 -0.0625 5.625 -2 6 C-1.34 4.02 -0.68 2.04 0 0 Z " fill="#856139" transform="translate(247,83)"/>
<path d="M0 0 C1.125 3.75 1.125 3.75 0 6 C-0.66 6 -1.32 6 -2 6 C-2.33 6.99 -2.66 7.98 -3 9 C-2.4140625 2.84765625 -2.4140625 2.84765625 -2 1 C-1.34 0.67 -0.68 0.34 0 0 Z " fill="#7D7048" transform="translate(227,311)"/>
<path d="M0 0 C0.66 0 1.32 0 2 0 C2.33 2.64 2.66 5.28 3 8 C2.01 8.495 2.01 8.495 1 9 C0.67 6.03 0.34 3.06 0 0 Z " fill="#9E9668" transform="translate(282,293)"/>
<path d="M0 0 C0.33 0 0.66 0 1 0 C1.125 7.75 1.125 7.75 0 10 C-0.66 10 -1.32 10 -2 10 C-1.34 6.7 -0.68 3.4 0 0 Z " fill="#9F8F64" transform="translate(235,272)"/>
<path d="M0 0 C0 1.98 0 3.96 0 6 C-1.32 5.67 -2.64 5.34 -4 5 C-4 4.01 -4 3.02 -4 2 C-1 0 -1 0 0 0 Z " fill="#B29056" transform="translate(195,233)"/>
<path d="M0 0 C2.64 0 5.28 0 8 0 C8.33 0.66 8.66 1.32 9 2 C8.34 2 7.68 2 7 2 C6.34 3.32 5.68 4.64 5 6 C5 4.35 5 2.7 5 1 C3.35 1 1.7 1 0 1 C0 0.67 0 0.34 0 0 Z " fill="#8A6942" transform="translate(350,125)"/>
<path d="M0 0 C3.3 0.33 6.6 0.66 10 1 C9.67 1.66 9.34 2.32 9 3 C2.25 2.25 2.25 2.25 0 0 Z " fill="#A1875F" transform="translate(248,83)"/>
<path d="M0 0 C0.99 0 1.98 0 3 0 C3 0.99 3 1.98 3 3 C4.32 3.33 5.64 3.66 7 4 C5.35 4.33 3.7 4.66 2 5 C1.34 3.35 0.68 1.7 0 0 Z " fill="#AEA06F" transform="translate(357,331)"/>
<path d="M0 0 C2.76223278 2.76223278 2.57856291 5.20706617 3 9 C2.67 8.01 2.34 7.02 2 6 C1.01 5.67 0.02 5.34 -1 5 C-0.67 3.35 -0.34 1.7 0 0 Z " fill="#978553" transform="translate(374,239)"/>
<path d="M0 0 C2.97 0.495 2.97 0.495 6 1 C6 2.65 6 4.3 6 6 C5.566875 5.525625 5.13375 5.05125 4.6875 4.5625 C2.97690387 2.76313043 2.97690387 2.76313043 0 2 C0 1.34 0 0.68 0 0 Z " fill="#C6B073" transform="translate(364,229)"/>
<path d="M0 0 C0.556875 0.226875 1.11375 0.45375 1.6875 0.6875 C-2.74326923 3.76442308 -2.74326923 3.76442308 -5.625 3.375 C-6.4603125 3.0346875 -6.4603125 3.0346875 -7.3125 2.6875 C-2.88173077 -0.38942308 -2.88173077 -0.38942308 0 0 Z " fill="#7E6238" transform="translate(165.3125,222.3125)"/>
<path d="M0 0 C-1.3125 2 -1.3125 2 -3 4 C-3.99 4 -4.98 4 -6 4 C-6.33 3.01 -6.66 2.02 -7 1 C-4.53721199 -0.231394 -2.7204945 -0.07159196 0 0 Z " fill="#B18B4B" transform="translate(416,221)"/>
<path d="M0 0 C0.33 0 0.66 0 1 0 C1.1875 3.375 1.1875 3.375 1 7 C0.01 7.66 -0.98 8.32 -2 9 C-2.20140476 5.37471432 -1.85776765 3.13498292 0 0 Z " fill="#5F4C2B" transform="translate(249,173)"/>
<path d="M0 0 C3.3 0 6.6 0 10 0 C10 0.33 10 0.66 10 1 C8.9275 1.144375 7.855 1.28875 6.75 1.4375 C4.08337051 1.83749442 1.58600271 2.27591924 -1 3 C-0.67 2.01 -0.34 1.02 0 0 Z " fill="#81653E" transform="translate(242,125)"/>
<path d="M0 0 C-0.33 1.65 -0.66 3.3 -1 5 C-2.32 4.67 -3.64 4.34 -5 4 C-5 3.34 -5 2.68 -5 2 C-2 0 -2 0 0 0 Z " fill="#8F6F41" transform="translate(249,87)"/>
</svg>
